<svg width="71" height="64" viewBox="0 0 71 64" fill="none" xmlns="http://www.w3.org/2000/svg">
<path d="M25.1181 9.08042L13.9389 0.858899C13.9284 0.851215 13.9137 0.853456 13.9061 0.863905C13.8984 0.874354 13.8837 0.876595 13.8732 0.868911L13.8545 0.85512C13.8337 0.83982 13.8044 0.844282 13.7891 0.865087L13.7605 0.904007C13.7518 0.915851 13.7404 0.925514 13.7273 0.932235L13.5848 1.00552C13.5382 1.02948 13.4977 1.06393 13.4667 1.10616C13.4427 1.13877 13.4248 1.17542 13.4137 1.21435L13.3756 1.34839L13.3066 1.54113C13.2976 1.56634 13.2849 1.5901 13.2691 1.61167L13.2153 1.68474C13.1943 1.71334 13.1604 1.72957 13.1249 1.728C13.064 1.72532 13.0134 1.77417 13.0138 1.83509L13.0146 1.93899C13.0146 1.95124 13.0123 1.96338 13.0076 1.9747C12.9905 2.01644 12.9456 2.0396 12.9016 2.02942L12.8801 2.02442C12.8341 2.01377 12.7862 2.03151 12.7582 2.06955L12.655 2.20982C12.6353 2.2367 12.6034 2.25195 12.5701 2.25048C12.5499 2.24959 12.5299 2.25484 12.5127 2.26553L12.4053 2.33258C12.3543 2.36439 12.3205 2.41765 12.3135 2.47734L12.3124 2.48645C12.3062 2.53979 12.3242 2.59311 12.3617 2.63164C12.3876 2.6584 12.4046 2.69262 12.4101 2.7295L12.4182 2.78306C12.4267 2.83975 12.421 2.89766 12.4017 2.95162L12.3678 3.04629C12.355 3.08202 12.3371 3.1157 12.3146 3.14628L12.2082 3.291C12.1677 3.34604 12.1686 3.42124 12.2103 3.47534C12.232 3.50342 12.2432 3.53816 12.2421 3.57362L12.2337 3.84735C12.2329 3.87528 12.2355 3.90321 12.2415 3.93051L12.2495 3.96704C12.2717 4.06877 12.2354 4.17443 12.1553 4.24094L12.0233 4.35051C12.0024 4.36782 11.9724 4.3687 11.9506 4.35264C11.9283 4.33624 11.8976 4.33754 11.8768 4.35577L11.769 4.45006C11.7561 4.46141 11.7444 4.47414 11.7342 4.48803L11.6475 4.60581C11.6047 4.66412 11.574 4.7305 11.5575 4.80096L11.5246 4.94064C11.5095 5.00506 11.4669 5.0596 11.408 5.08985L11.3846 5.10187C11.3689 5.10993 11.3553 5.12153 11.3449 5.13574L11.3119 5.18056C11.2928 5.20657 11.2984 5.24316 11.3244 5.26228C11.3504 5.28141 11.356 5.31799 11.3368 5.344L11.2898 5.40793C11.2626 5.44496 11.2187 5.46598 11.1727 5.46395L11.1619 5.46347L10.9909 5.44406C10.9801 5.44284 10.9693 5.44482 10.9597 5.44976C10.9235 5.46834 10.9195 5.51844 10.9523 5.54252L11.0308 5.6003C11.0439 5.60988 11.0547 5.6221 11.0627 5.63616L11.1214 5.73948C11.1422 5.77604 11.12 5.82207 11.0784 5.8285C11.0704 5.82974 11.0621 5.82934 11.0543 5.82731L11.0082 5.81544C10.9661 5.80459 10.9221 5.8033 10.8794 5.81167L10.5551 5.8752C10.5433 5.87751 10.532 5.88183 10.5216 5.88795C10.4561 5.92662 10.4514 6.01963 10.5127 6.06469L10.5258 6.07433C10.5435 6.08735 10.5572 6.10509 10.5653 6.12552L10.634 6.29967L10.7389 6.55171C10.7606 6.62436 10.7573 6.70222 10.7293 6.77271L10.642 6.99264C10.6163 7.05737 10.5694 7.11147 10.5089 7.14608L10.4652 7.17113C10.4245 7.19446 10.3943 7.23263 10.381 7.27766L10.3442 7.4025C10.3334 7.43916 10.2933 7.45845 10.2579 7.44398C10.243 7.4379 10.2264 7.43759 10.2113 7.44311L10.1553 7.46358L9.92857 7.52491C9.88746 7.53603 9.85058 7.5591 9.82259 7.59121C9.74394 7.68145 9.75411 7.81856 9.84523 7.8962L9.88684 7.93166C9.91479 7.95548 9.93605 7.98616 9.94853 8.0207L9.97443 8.09242C9.98219 8.1139 9.97873 8.13784 9.96519 8.15624L9.95584 8.16895C9.93566 8.1964 9.89566 8.19914 9.87193 8.1747C9.84558 8.14758 9.80037 8.15444 9.78326 8.18815L9.70006 8.35207C9.69264 8.36669 9.68332 8.38028 9.67233 8.39247L9.56877 8.50742C9.54626 8.5324 9.51009 8.53976 9.47962 8.52557C9.44658 8.51018 9.40727 8.52024 9.38568 8.5496L9.36715 8.57479L9.30327 8.68535C9.27573 8.73301 9.23297 8.77002 9.18185 8.79045L9.14222 8.80628C9.08814 8.82788 9.02675 8.82004 8.97984 8.78555C8.94372 8.75899 8.89851 8.74791 8.85421 8.75476L8.79242 8.76433L8.62867 8.78966L8.17544 8.90257C8.12249 8.91576 8.07151 8.93583 8.02378 8.96228C7.88144 9.04115 7.77552 9.17249 7.7286 9.32831L7.70116 9.41942L7.66284 9.55431C7.65279 9.58967 7.62307 9.61594 7.58673 9.62157C7.56201 9.62539 7.53677 9.61921 7.51661 9.60438L7.45019 9.55554C7.40351 9.5212 7.34767 9.50151 7.28978 9.49896L7.1428 9.49248C7.13151 9.49198 7.12029 9.49444 7.11025 9.4996C7.07145 9.51955 7.06296 9.57132 7.09335 9.60261L7.09677 9.60613C7.1174 9.62737 7.12207 9.65946 7.10834 9.68571L7.03481 9.8262C7.00583 9.88157 6.95004 9.91779 6.88767 9.92172C6.83555 9.92499 6.78461 9.90532 6.74822 9.86786L6.7146 9.83324C6.70918 9.82765 6.7033 9.82253 6.69703 9.81792L6.67197 9.79949C6.65787 9.78912 6.64022 9.7848 6.62293 9.78747C6.56816 9.79595 6.54776 9.8642 6.58891 9.90133L6.60426 9.91518C6.63535 9.94325 6.63771 9.99126 6.60951 10.0222L6.43486 10.2141C6.3854 10.2684 6.35524 10.3375 6.34904 10.4107L6.32991 10.6367C6.32891 10.6486 6.32628 10.6603 6.32211 10.6715L6.31474 10.6912C6.29051 10.7562 6.21409 10.7843 6.15355 10.7505C6.12241 10.7331 6.08489 10.7314 6.05231 10.746L6.04359 10.7498C5.98031 10.7781 5.94955 10.8503 5.97308 10.9155L6.01357 11.0276C6.03453 11.0856 6.0342 11.1492 6.01264 11.207L5.99801 11.2463C5.99025 11.2671 5.97963 11.2867 5.96647 11.3046L5.96121 11.3118C5.93242 11.3509 5.8912 11.3791 5.84428 11.3918C5.79737 11.4045 5.75615 11.4327 5.72736 11.4719L5.71954 11.4825C5.69012 11.5225 5.67315 11.5703 5.67076 11.6199L5.66888 11.6589C5.66719 11.694 5.65516 11.7279 5.63429 11.7563C5.59419 11.8108 5.52677 11.8381 5.46005 11.8267L5.45366 11.8256C5.42759 11.8212 5.40089 11.8222 5.37526 11.8287L4.73622 11.9908L4.59429 12.0428C4.58307 12.0469 4.57238 12.0523 4.56245 12.0589L4.46724 12.1226C4.41437 12.1579 4.41918 12.2372 4.47593 12.2659L4.5028 12.2802C4.56743 12.3148 4.58984 12.3966 4.55191 12.4593C4.51604 12.5186 4.43946 12.5386 4.37918 12.5044L4.16247 12.3813C4.14714 12.3726 4.13113 12.3651 4.1146 12.359L4.01997 12.324C3.99435 12.3145 3.96592 12.3162 3.94162 12.3287C3.90795 12.346 3.88736 12.3813 3.88881 12.4191L3.88909 12.4262C3.89094 12.4742 3.92406 12.5153 3.97055 12.5273L3.99616 12.5339C4.00814 12.5369 4.01968 12.5416 4.03048 12.5476L4.04852 12.5577C4.1307 12.6035 4.18699 12.6849 4.20096 12.778L4.21736 12.8871C4.2179 12.8908 4.21819 12.8944 4.21822 12.8981C4.21861 12.9523 4.16491 12.9903 4.11397 12.9718L3.85845 12.8795C3.83905 12.8725 3.82053 12.8632 3.80325 12.852L3.67378 12.7674C3.56696 12.6977 3.42341 12.733 3.3611 12.8443C3.31866 12.9201 3.32474 13.0138 3.37663 13.0835L3.52149 13.278C3.57139 13.3451 3.53625 13.4413 3.45489 13.4604C3.43015 13.4662 3.40799 13.4799 3.39182 13.4995L3.28702 13.6267C3.20537 13.7257 3.20308 13.8681 3.2815 13.9697L3.31789 14.0169C3.34185 14.0479 3.35167 14.0876 3.34495 14.1263L3.32655 14.232C3.31568 14.2945 3.24027 14.3205 3.19321 14.278C3.15782 14.246 3.10258 14.2517 3.07433 14.2901L2.94738 14.4627C2.91059 14.5127 2.89185 14.5738 2.89424 14.6358L2.8951 14.6582C2.89592 14.6793 2.89871 14.7003 2.90345 14.721L2.91766 14.7828C2.93458 14.8564 2.9141 14.9337 2.86292 14.9892L2.8164 15.0397C2.80628 15.0507 2.7923 15.0574 2.77738 15.0583C2.7233 15.0617 2.70301 15.1309 2.74666 15.163L2.7549 15.169C2.76395 15.1757 2.771 15.1847 2.77532 15.195L2.86642 15.414C2.87119 15.4254 2.87453 15.4374 2.87637 15.4497C2.88639 15.5164 2.85112 15.5817 2.78984 15.6099L2.74252 15.6317C2.69802 15.6522 2.64798 15.6573 2.60025 15.6463L2.5595 15.6368C2.52158 15.6281 2.48173 15.6347 2.44871 15.6553L2.43037 15.6667C2.40662 15.6816 2.3903 15.7058 2.3855 15.7334L2.38272 15.7494C2.37802 15.7763 2.38901 15.8037 2.41107 15.8199L2.4386 15.8401C2.45552 15.8526 2.47932 15.849 2.49176 15.832C2.49525 15.8273 2.49759 15.8218 2.4986 15.816L2.50452 15.7819C2.50553 15.7762 2.50787 15.7707 2.51135 15.7659C2.5238 15.749 2.5476 15.7454 2.56452 15.7578L2.61706 15.7965C2.62435 15.8018 2.63072 15.8083 2.63593 15.8157C2.65667 15.8452 2.65627 15.8846 2.63492 15.9136L2.62163 15.9317C2.60823 15.9499 2.58975 15.9638 2.56852 15.9715L2.52167 15.9887L2.36605 16.0581C2.35473 16.0631 2.34438 16.0701 2.33549 16.0788L2.31006 16.1036C2.27683 16.1359 2.2806 16.1904 2.31796 16.2179C2.35137 16.2424 2.35854 16.2894 2.33397 16.3228L2.32922 16.3293C2.31619 16.347 2.29669 16.3588 2.27497 16.3622L2.24338 16.3671C2.20144 16.3736 2.16377 16.3964 2.13862 16.4306L2.01612 16.5972C1.97997 16.6463 2.0041 16.7165 2.06286 16.733C2.10382 16.7445 2.13053 16.7839 2.1261 16.8262L2.10147 17.0614C2.0913 17.1585 2.04295 17.2476 1.96707 17.309L1.80308 17.4417C1.75259 17.4826 1.70756 17.5298 1.66908 17.5821L1.59506 17.6827C1.58116 17.7017 1.57137 17.7232 1.5663 17.7462L1.56236 17.764C1.54221 17.8551 1.44572 17.907 1.35859 17.8735L1.35155 17.8708C1.30437 17.8527 1.25108 17.8615 1.21219 17.8938C1.1619 17.9355 1.14725 18.0065 1.17692 18.0647L1.22939 18.1677C1.2394 18.1874 1.24161 18.21 1.23559 18.2312L1.22769 18.2591C1.2118 18.315 1.13969 18.3301 1.10266 18.2853C1.08181 18.2601 1.0466 18.2521 1.01687 18.2657L0.936891 18.3026C0.881166 18.3282 0.841614 18.3796 0.831099 18.4401L0.82486 18.4759C0.822234 18.491 0.820969 18.5063 0.82108 18.5216L0.821172 18.5343C0.822078 18.6594 0.881974 18.7767 0.982763 18.8509L1.08631 18.927L3.23934 20.6562L7.58654 23.8532C7.66427 23.9104 7.74709 23.9603 7.83396 24.0023L8.13072 24.1457C8.22885 24.1931 8.30998 24.2697 8.36303 24.3649C8.4 24.4312 8.45079 24.4888 8.51198 24.5338L8.85235 24.7841L10.0765 25.5504C10.148 25.5952 10.2229 25.6342 10.3006 25.6672L10.6302 25.8074C10.8252 25.8903 10.9777 26.0496 11.052 26.248C11.1039 26.3866 11.1944 26.5074 11.3129 26.5961L17.4528 31.1926C17.6555 31.3443 17.8724 31.4759 18.1006 31.5856L18.4002 31.7371C18.6216 31.849 18.8197 32.0019 18.9842 32.1877C19.1135 32.3337 19.2638 32.4596 19.4301 32.5614L24.5848 35.7129L27.3385 37.4619C27.4411 37.5271 27.55 37.5819 27.6635 37.6255L27.7243 37.6489C27.9003 37.7165 28.0618 37.8168 28.2004 37.9447L28.3427 38.076C28.4182 38.1457 28.5088 38.1969 28.6074 38.2257C28.6821 38.2475 28.7524 38.2822 28.8151 38.3283L29.0029 38.4664L32.1705 40.5919C32.506 40.8386 32.7877 41.1512 32.9983 41.5105L33.0451 41.5905C33.1013 41.6864 33.1646 41.778 33.2343 41.8646L33.374 42.0379C33.4031 42.074 33.4368 42.1062 33.4742 42.1337L33.7842 42.3618C33.8524 42.4119 33.867 42.5077 33.8169 42.5758C33.7866 42.617 33.7789 42.6705 33.7962 42.7186L33.8598 42.8946C33.8937 42.9885 33.9548 43.0702 34.0352 43.1294L39.0351 46.8065L44.2207 50.7658L45.4204 51.5024L45.7029 51.7101L47.6807 53.1646L49.0533 54.4948L55.2502 59.0522L55.5474 59.2707C55.6252 59.328 55.6957 59.3945 55.7572 59.469L55.9348 59.6839C56.0731 59.8512 56.2855 59.9388 56.5015 59.9176C56.6618 59.9018 56.8222 59.9459 56.9519 60.0412L57.1836 60.2117L58.5464 61.4763L59.7943 62.5944C59.9301 62.7161 60.0536 62.8508 60.1631 62.9966L60.286 63.1604C60.2898 63.1654 60.2932 63.1707 60.2962 63.1763L60.4216 63.4112C60.4525 63.469 60.5403 63.4452 60.5378 63.3797C60.537 63.3598 60.5459 63.3408 60.5616 63.3286L60.6628 63.2501C60.7517 63.1812 60.7964 63.0697 60.7797 62.9585L60.6959 62.4007C60.6881 62.3485 60.7012 62.2954 60.7325 62.2529L60.7847 62.1819C60.8211 62.1324 60.8105 62.0627 60.7609 62.0262C60.7342 62.0066 60.7177 61.9761 60.7157 61.943L60.6784 61.3044C60.6768 61.2777 60.6791 61.2509 60.6852 61.2249L60.7017 61.155C60.7314 61.0287 60.8669 60.958 60.9881 61.0046C61.0004 61.0093 61.0133 61.0129 61.0263 61.0151C61.1501 61.0362 61.2624 60.9394 61.26 60.8139L61.2594 60.7827C61.258 60.7124 61.224 60.6468 61.1673 60.6051L61.0485 60.5177C61.0133 60.4918 60.9898 60.4529 60.9834 60.4097C60.9699 60.3202 61.0313 60.2367 61.1208 60.2228L61.483 60.1668L61.5324 60.2637C61.5643 60.3262 61.6508 60.3333 61.6924 60.2768C61.6969 60.2706 61.7007 60.2639 61.7036 60.2568L61.8589 59.8792C61.8745 59.8413 61.8737 59.7986 61.8567 59.7613C61.8184 59.6774 61.8652 59.5794 61.9545 59.5563L62.0216 59.5389C62.0755 59.5249 62.1215 59.4898 62.1492 59.4414L62.6101 58.6343L62.7915 58.3876C62.8527 58.3044 62.8348 58.1873 62.7516 58.1261L62.6955 58.0849C62.6433 58.0464 62.6321 57.9729 62.6705 57.9207C62.7089 57.8685 62.6977 57.795 62.6455 57.7565L62.5643 57.6968C62.4987 57.6486 62.4654 57.5678 62.478 57.4874L62.5246 57.1894C62.5423 57.0761 62.587 56.9687 62.6549 56.8763L62.764 56.728C62.8496 56.6116 62.8778 56.4627 62.8407 56.3231C62.8285 56.2773 62.8233 56.23 62.825 56.1827L62.8317 56.0055C62.841 55.7608 62.9235 55.5246 63.0686 55.3273L63.111 55.2696C63.1466 55.2212 63.1975 55.1863 63.2555 55.1706C63.3732 55.1388 63.4974 55.1912 63.5568 55.2977L63.5934 55.3635L63.6567 55.469C63.7102 55.5581 63.821 55.5944 63.9167 55.5541C63.971 55.5312 64.0325 55.5324 64.0859 55.5573L64.1893 55.6054C64.269 55.6425 64.3638 55.6183 64.4158 55.5475L64.4186 55.5437C64.4311 55.5267 64.4402 55.5073 64.4453 55.4867L64.4876 55.3142C64.4979 55.2726 64.4597 55.2353 64.4183 55.2465C64.3889 55.2544 64.3585 55.2375 64.3498 55.2083L64.3167 55.098C64.2883 55.0031 64.3444 54.9036 64.4402 54.8788L64.5494 54.8506C64.5739 54.8443 64.5954 54.8297 64.6104 54.8093C64.6309 54.7815 64.6632 54.7649 64.6977 54.7645L64.785 54.7635C64.9095 54.7621 65.0186 54.68 65.0545 54.5608L65.0821 54.4691C65.0904 54.4416 65.0904 54.4123 65.0822 54.3848C65.069 54.3407 65.0772 54.293 65.1045 54.2559L65.1144 54.2425C65.1338 54.2161 65.1629 54.1984 65.1952 54.1934L65.1987 54.1929C65.2454 54.1857 65.2834 54.1514 65.2953 54.1056L65.3114 54.044C65.3249 53.9924 65.3862 53.9707 65.4291 54.0023C65.4693 54.0318 65.5266 54.015 65.5443 53.9684L65.6412 53.7144C65.657 53.6729 65.6628 53.6282 65.6581 53.584L65.5914 52.9541C65.587 52.913 65.5858 52.8717 65.5878 52.8304C65.5939 52.7046 65.5703 52.579 65.519 52.4639L65.3235 52.0253C65.2895 51.9489 65.2991 51.8602 65.3486 51.7929C65.3863 51.7416 65.4434 51.708 65.5066 51.7L65.7724 51.6662C65.9316 51.646 66.0933 51.6708 66.2391 51.7379L66.65 51.9271C66.8363 52.0129 67.0572 51.9559 67.1787 51.7906L67.2609 51.6788C67.3436 51.5665 67.4563 51.4797 67.586 51.4286L67.6895 51.3878C67.8099 51.3404 67.9443 51.3438 68.0622 51.3972C68.2056 51.4622 68.3719 51.4524 68.5067 51.371L68.5525 51.3433L68.672 51.2913C68.783 51.243 68.9113 51.2574 69.0089 51.3291C69.0989 51.3954 69.2158 51.4131 69.3214 51.3765L69.484 51.3202C69.4967 51.3158 69.5091 51.3105 69.5211 51.3044C69.6233 51.2518 69.6839 51.1431 69.675 51.0286L69.6667 50.9222C69.6584 50.8153 69.6039 50.7172 69.5175 50.6537L69.3796 50.5523C69.2917 50.4876 69.2728 50.3639 69.3375 50.276C69.3609 50.2441 69.3742 50.2059 69.3757 50.1664L69.3893 49.8082C69.3938 49.6882 69.4808 49.5873 69.5988 49.5651C69.7567 49.5354 69.849 49.3699 69.7914 49.22L69.3103 47.969C69.1789 47.6272 69.1893 47.2471 69.3392 46.9131L70.2667 44.8468C70.3698 44.617 70.4218 44.3676 70.419 44.1158C70.4132 43.5949 70.174 43.1041 69.7674 42.7785L57.0945 32.6313C56.7421 32.3492 56.3557 32.1121 55.9445 31.9258L53.633 30.8787C53.4642 30.8022 53.3437 30.6479 53.3103 30.4657C53.285 30.3277 53.2092 30.204 53.0977 30.1187L37.8933 18.485C37.6835 18.3245 37.4556 18.1889 37.2144 18.0811L36.344 17.6922C36.0983 17.5824 35.9048 17.3815 35.8042 17.1319C35.7321 16.9529 35.6116 16.7976 35.4561 16.6833L31.0604 13.4505L28.3138 11.897L27.5038 11.3014L27.381 11.211C26.9622 10.903 26.5822 10.5453 26.2496 10.1457C25.9169 9.74617 25.537 9.38845 25.1181 9.08042Z" fill="#DBD7D2"/>
<path d="M61.4355 60.0735L61.483 60.1668M61.483 60.1668L61.5324 60.2637C61.5643 60.3262 61.6508 60.3333 61.6924 60.2768V60.2768C61.6969 60.2706 61.7007 60.2639 61.7036 60.2568L61.8589 59.8792C61.8745 59.8413 61.8737 59.7986 61.8567 59.7613V59.7613C61.8184 59.6774 61.8652 59.5794 61.9545 59.5563L62.0216 59.5389C62.0755 59.5249 62.1215 59.4898 62.1492 59.4414L62.6101 58.6343L62.7915 58.3876C62.8527 58.3044 62.8348 58.1873 62.7516 58.1261L62.6955 58.0849C62.6433 58.0464 62.6321 57.9729 62.6705 57.9207V57.9207C62.7089 57.8685 62.6977 57.795 62.6455 57.7565L62.5643 57.6968C62.4987 57.6486 62.4654 57.5678 62.478 57.4874L62.5246 57.1894C62.5423 57.0761 62.587 56.9687 62.6549 56.8763L62.764 56.728C62.8496 56.6116 62.8778 56.4627 62.8407 56.3231V56.3231C62.8285 56.2773 62.8233 56.23 62.825 56.1827L62.8317 56.0055C62.841 55.7608 62.9235 55.5246 63.0686 55.3273V55.3273L63.111 55.2696C63.1466 55.2212 63.1975 55.1863 63.2555 55.1706V55.1706C63.3732 55.1388 63.4974 55.1912 63.5568 55.2977L63.5934 55.3635L63.6567 55.469C63.7102 55.5581 63.821 55.5944 63.9167 55.5541V55.5541C63.971 55.5312 64.0325 55.5324 64.0859 55.5573L64.1893 55.6054C64.269 55.6425 64.3638 55.6183 64.4158 55.5475L64.4186 55.5437C64.4311 55.5267 64.4402 55.5073 64.4453 55.4867L64.4876 55.3142C64.4979 55.2726 64.4597 55.2353 64.4183 55.2465V55.2465C64.3889 55.2544 64.3585 55.2375 64.3498 55.2083L64.3167 55.098C64.2883 55.0031 64.3444 54.9036 64.4402 54.8788L64.5494 54.8506C64.5739 54.8443 64.5954 54.8297 64.6104 54.8093V54.8093C64.6309 54.7815 64.6632 54.7649 64.6977 54.7645L64.785 54.7635C64.9095 54.7621 65.0186 54.68 65.0545 54.5608L65.0821 54.4691C65.0904 54.4416 65.0904 54.4123 65.0822 54.3848V54.3848C65.069 54.3407 65.0772 54.293 65.1045 54.2559L65.1144 54.2425C65.1338 54.2161 65.1629 54.1984 65.1952 54.1934L65.1987 54.1929C65.2454 54.1857 65.2834 54.1514 65.2953 54.1056L65.3114 54.044C65.3249 53.9924 65.3862 53.9707 65.4291 54.0023V54.0023C65.4693 54.0318 65.5266 54.015 65.5443 53.9684L65.6412 53.7144C65.657 53.6729 65.6628 53.6282 65.6581 53.584L65.5914 52.9541C65.587 52.913 65.5858 52.8717 65.5878 52.8304V52.8304C65.5939 52.7046 65.5703 52.579 65.519 52.4639L65.3235 52.0253C65.2895 51.9489 65.2991 51.8602 65.3486 51.7929V51.7929C65.3863 51.7416 65.4434 51.708 65.5066 51.7L65.7724 51.6662C65.9316 51.646 66.0933 51.6708 66.2391 51.7379L66.65 51.9271C66.8363 52.0129 67.0572 51.9559 67.1787 51.7906V51.7906L67.2609 51.6788C67.3436 51.5665 67.4563 51.4797 67.586 51.4286L67.6895 51.3878C67.8099 51.3404 67.9443 51.3438 68.0622 51.3972V51.3972C68.2056 51.4622 68.3719 51.4524 68.5067 51.371L68.5525 51.3433L68.672 51.2913C68.783 51.243 68.9113 51.2574 69.0089 51.3291V51.3291C69.0989 51.3954 69.2158 51.4131 69.3214 51.3765L69.484 51.3202C69.4967 51.3158 69.5091 51.3105 69.5211 51.3044V51.3044C69.6233 51.2518 69.6839 51.1431 69.675 51.0286L69.6667 50.9222C69.6584 50.8153 69.6039 50.7172 69.5175 50.6537L69.3796 50.5523C69.2917 50.4876 69.2728 50.3639 69.3375 50.276V50.276C69.3609 50.2441 69.3742 50.2059 69.3757 50.1664L69.3893 49.8082C69.3938 49.6882 69.4808 49.5873 69.5988 49.5651V49.5651C69.7567 49.5354 69.849 49.3699 69.7914 49.22L69.3103 47.969C69.1789 47.6272 69.1893 47.2471 69.3392 46.9131L70.2667 44.8468C70.3698 44.617 70.4218 44.3676 70.419 44.1158V44.1158C70.4132 43.5949 70.174 43.1041 69.7674 42.7785L57.0945 32.6313C56.7421 32.3492 56.3557 32.1121 55.9445 31.9258L53.633 30.8787C53.4642 30.8022 53.3437 30.6479 53.3103 30.4657V30.4657C53.285 30.3277 53.2092 30.204 53.0977 30.1187L37.8933 18.485C37.6835 18.3245 37.4556 18.1889 37.2144 18.0811L36.344 17.6922C36.0983 17.5824 35.9048 17.3815 35.8042 17.1319V17.1319C35.7321 16.9529 35.6116 16.7976 35.4561 16.6833L31.0604 13.4505L28.3138 11.897L27.5038 11.3014L27.381 11.211C26.9622 10.903 26.5822 10.5453 26.2496 10.1457V10.1457C25.9169 9.74617 25.537 9.38845 25.1181 9.08042L13.9389 0.858899C13.9284 0.851215 13.9137 0.853456 13.9061 0.863905V0.863905C13.8984 0.874354 13.8837 0.876595 13.8732 0.868911L13.8545 0.85512C13.8337 0.83982 13.8044 0.844282 13.7891 0.865087L13.7605 0.904007C13.7518 0.915851 13.7404 0.925514 13.7273 0.932235L13.5848 1.00552C13.5382 1.02948 13.4977 1.06393 13.4667 1.10616V1.10616C13.4427 1.13877 13.4248 1.17542 13.4137 1.21435L13.3756 1.34839L13.3066 1.54113C13.2976 1.56634 13.2849 1.5901 13.2691 1.61167L13.2153 1.68474C13.1943 1.71334 13.1604 1.72957 13.1249 1.728V1.728C13.064 1.72532 13.0134 1.77417 13.0138 1.83509L13.0146 1.93899C13.0146 1.95124 13.0123 1.96338 13.0076 1.9747V1.9747C12.9905 2.01644 12.9456 2.0396 12.9016 2.02942L12.8801 2.02442C12.8341 2.01377 12.7862 2.03151 12.7582 2.06955L12.655 2.20982C12.6353 2.2367 12.6034 2.25195 12.5701 2.25048V2.25048C12.5499 2.24959 12.5299 2.25484 12.5127 2.26553L12.4053 2.33258C12.3543 2.36439 12.3205 2.41765 12.3135 2.47734L12.3124 2.48645C12.3062 2.53979 12.3242 2.59311 12.3617 2.63164V2.63164C12.3876 2.6584 12.4046 2.69262 12.4101 2.7295L12.4182 2.78306C12.4267 2.83975 12.421 2.89766 12.4017 2.95162L12.3678 3.04629C12.355 3.08202 12.3371 3.1157 12.3146 3.14628L12.2082 3.291C12.1677 3.34604 12.1686 3.42124 12.2103 3.47534V3.47534C12.232 3.50342 12.2432 3.53816 12.2421 3.57362L12.2337 3.84735C12.2329 3.87528 12.2355 3.90321 12.2415 3.93051L12.2495 3.96704C12.2717 4.06877 12.2354 4.17443 12.1553 4.24094L12.0233 4.35051C12.0024 4.36782 11.9724 4.3687 11.9506 4.35264V4.35264C11.9283 4.33624 11.8976 4.33754 11.8768 4.35577L11.769 4.45006C11.7561 4.46141 11.7444 4.47414 11.7342 4.48803L11.6475 4.60581C11.6047 4.66412 11.574 4.7305 11.5575 4.80096L11.5246 4.94064C11.5095 5.00506 11.4669 5.0596 11.408 5.08985L11.3846 5.10187C11.3689 5.10993 11.3553 5.12153 11.3449 5.13574L11.3119 5.18056C11.2928 5.20657 11.2984 5.24316 11.3244 5.26228V5.26228C11.3504 5.28141 11.356 5.318 11.3368 5.344L11.2898 5.40793C11.2626 5.44496 11.2187 5.46598 11.1727 5.46395L11.1619 5.46347L10.9909 5.44406C10.9801 5.44284 10.9693 5.44482 10.9597 5.44976V5.44976C10.9235 5.46834 10.9195 5.51844 10.9523 5.54252L11.0308 5.6003C11.0439 5.60988 11.0547 5.6221 11.0627 5.63616L11.1214 5.73948C11.1422 5.77604 11.12 5.82207 11.0784 5.8285V5.8285C11.0704 5.82974 11.0621 5.82934 11.0543 5.82731L11.0082 5.81544C10.9661 5.80459 10.9221 5.8033 10.8794 5.81167L10.5551 5.8752C10.5433 5.87751 10.532 5.88183 10.5216 5.88795V5.88795C10.4561 5.92662 10.4514 6.01963 10.5127 6.06469L10.5258 6.07433C10.5435 6.08735 10.5572 6.10509 10.5653 6.12552L10.634 6.29967L10.7389 6.55171V6.55171C10.7606 6.62436 10.7573 6.70222 10.7293 6.77271L10.642 6.99264C10.6163 7.05737 10.5694 7.11147 10.5089 7.14608L10.4652 7.17113C10.4245 7.19446 10.3943 7.23263 10.381 7.27766L10.3442 7.4025C10.3334 7.43916 10.2933 7.45845 10.2579 7.44398V7.44398C10.243 7.4379 10.2264 7.43759 10.2113 7.44311L10.1553 7.46358L9.92857 7.52491C9.88746 7.53603 9.85058 7.5591 9.82259 7.59121V7.59121C9.74394 7.68145 9.75411 7.81856 9.84523 7.8962L9.88684 7.93166C9.91479 7.95548 9.93605 7.98617 9.94853 8.0207L9.97443 8.09242C9.98219 8.1139 9.97873 8.13784 9.96519 8.15624L9.95584 8.16895C9.93566 8.1964 9.89566 8.19914 9.87192 8.1747V8.1747C9.84558 8.14758 9.80037 8.15444 9.78326 8.18815L9.70006 8.35207C9.69264 8.36669 9.68332 8.38028 9.67233 8.39247L9.56877 8.50742C9.54626 8.5324 9.51009 8.53976 9.47962 8.52557V8.52557C9.44658 8.51018 9.40727 8.52024 9.38568 8.5496L9.36715 8.57479L9.30327 8.68535C9.27573 8.73301 9.23297 8.77002 9.18185 8.79045L9.14222 8.80628C9.08814 8.82788 9.02675 8.82004 8.97984 8.78555V8.78555C8.94372 8.75899 8.89851 8.74791 8.85421 8.75476L8.79242 8.76433L8.62867 8.78966L8.17544 8.90257C8.12249 8.91576 8.07151 8.93583 8.02378 8.96228V8.96228C7.88144 9.04115 7.77552 9.17249 7.7286 9.32831L7.70116 9.41942L7.66284 9.55431C7.65279 9.58967 7.62307 9.61594 7.58673 9.62157V9.62157C7.56201 9.62539 7.53677 9.61921 7.51661 9.60438L7.45019 9.55554C7.40351 9.5212 7.34767 9.50151 7.28978 9.49896L7.1428 9.49248C7.13151 9.49198 7.12029 9.49444 7.11025 9.4996V9.4996C7.07145 9.51955 7.06296 9.57132 7.09335 9.60261L7.09677 9.60613C7.1174 9.62737 7.12207 9.65946 7.10834 9.6857L7.03481 9.8262C7.00583 9.88158 6.95004 9.91779 6.88767 9.92172V9.92172C6.83555 9.92499 6.78461 9.90532 6.74823 9.86786L6.7146 9.83324C6.70918 9.82765 6.7033 9.82253 6.69703 9.81792L6.67197 9.79949C6.65787 9.78912 6.64022 9.7848 6.62293 9.78747V9.78747C6.56816 9.79595 6.54776 9.8642 6.58891 9.90133L6.60426 9.91519C6.63535 9.94325 6.63771 9.99126 6.60951 10.0222L6.43486 10.2141C6.3854 10.2684 6.35524 10.3375 6.34904 10.4107L6.32991 10.6367C6.32891 10.6486 6.32628 10.6603 6.32211 10.6715L6.31474 10.6912C6.29051 10.7562 6.21409 10.7843 6.15355 10.7505V10.7505C6.12241 10.7331 6.08488 10.7314 6.05231 10.746L6.04359 10.7498C5.98031 10.7781 5.94955 10.8503 5.97308 10.9155L6.01357 11.0276C6.03453 11.0856 6.0342 11.1492 6.01264 11.207L5.99801 11.2463C5.99025 11.2671 5.97963 11.2867 5.96647 11.3046L5.96121 11.3118C5.93242 11.3509 5.8912 11.3791 5.84428 11.3918V11.3918C5.79737 11.4045 5.75615 11.4327 5.72736 11.4719L5.71954 11.4825C5.69012 11.5225 5.67315 11.5703 5.67076 11.6199L5.66888 11.6589C5.66719 11.694 5.65516 11.7279 5.63429 11.7563V11.7563C5.59419 11.8108 5.52677 11.8381 5.46005 11.8267L5.45366 11.8256C5.42759 11.8212 5.40089 11.8222 5.37526 11.8287L4.73622 11.9908L4.59429 12.0428C4.58307 12.0469 4.57238 12.0523 4.56245 12.0589L4.46724 12.1226C4.41437 12.1579 4.41918 12.2372 4.47593 12.2659V12.2659L4.5028 12.2802C4.56743 12.3148 4.58984 12.3966 4.55191 12.4593V12.4593C4.51604 12.5186 4.43946 12.5386 4.37918 12.5044L4.16247 12.3813C4.14714 12.3726 4.13113 12.3651 4.1146 12.359L4.01997 12.324C3.99435 12.3145 3.96592 12.3162 3.94162 12.3287V12.3287C3.90795 12.346 3.88736 12.3813 3.88881 12.4191L3.88909 12.4262C3.89094 12.4742 3.92406 12.5153 3.97055 12.5273L3.99616 12.5339C4.00814 12.5369 4.01968 12.5416 4.03048 12.5476L4.04852 12.5577C4.1307 12.6035 4.18699 12.6849 4.20096 12.778L4.21736 12.8871C4.2179 12.8908 4.21819 12.8944 4.21822 12.8981V12.8981C4.21861 12.9523 4.16491 12.9903 4.11397 12.9718L3.85845 12.8795C3.83905 12.8725 3.82053 12.8632 3.80325 12.852L3.67378 12.7674C3.56696 12.6977 3.42341 12.733 3.3611 12.8443V12.8443C3.31866 12.9201 3.32474 13.0138 3.37663 13.0835L3.52149 13.278C3.5714 13.3451 3.53625 13.4413 3.45489 13.4604V13.4604C3.43015 13.4662 3.40799 13.4799 3.39182 13.4995L3.28702 13.6267C3.20537 13.7257 3.20308 13.8681 3.2815 13.9697L3.31789 14.0169C3.34185 14.0479 3.35167 14.0876 3.34495 14.1263L3.32655 14.232C3.31568 14.2945 3.24027 14.3205 3.19321 14.278V14.278C3.15782 14.246 3.10258 14.2517 3.07433 14.2901L2.94738 14.4627C2.91059 14.5127 2.89185 14.5738 2.89424 14.6358L2.8951 14.6582C2.89592 14.6793 2.89871 14.7003 2.90345 14.721L2.91766 14.7828C2.93458 14.8564 2.9141 14.9337 2.86292 14.9892L2.8164 15.0397C2.80628 15.0507 2.7923 15.0574 2.77738 15.0583V15.0583C2.7233 15.0617 2.70301 15.1309 2.74666 15.163L2.7549 15.169C2.76395 15.1757 2.77101 15.1847 2.77532 15.195L2.86642 15.414C2.87119 15.4254 2.87453 15.4374 2.87637 15.4497V15.4497C2.88639 15.5164 2.85112 15.5817 2.78984 15.6099L2.74252 15.6317C2.69802 15.6522 2.64798 15.6573 2.60025 15.6463L2.5595 15.6368C2.52158 15.6281 2.48173 15.6347 2.44871 15.6553L2.43037 15.6667C2.40662 15.6816 2.3903 15.7058 2.3855 15.7334L2.38272 15.7494C2.37802 15.7763 2.38901 15.8037 2.41107 15.8199L2.4386 15.8401C2.45552 15.8526 2.47932 15.849 2.49176 15.832V15.832C2.49525 15.8273 2.49759 15.8218 2.49859 15.816L2.50452 15.7819C2.50553 15.7762 2.50787 15.7707 2.51135 15.7659V15.7659C2.5238 15.749 2.5476 15.7454 2.56452 15.7578L2.61706 15.7965C2.62435 15.8018 2.63072 15.8083 2.63593 15.8157V15.8157C2.65667 15.8452 2.65627 15.8846 2.63492 15.9136L2.62163 15.9317C2.60823 15.9499 2.58975 15.9638 2.56851 15.9715L2.52167 15.9887L2.36605 16.0581C2.35473 16.0631 2.34438 16.0701 2.3355 16.0788L2.31006 16.1036C2.27683 16.1359 2.2806 16.1904 2.31796 16.2179V16.2179C2.35137 16.2424 2.35854 16.2894 2.33397 16.3228L2.32922 16.3293C2.31619 16.347 2.29669 16.3588 2.27497 16.3622L2.24338 16.3671C2.20144 16.3736 2.16377 16.3964 2.13862 16.4306L2.01612 16.5972C1.97997 16.6463 2.0041 16.7165 2.06286 16.733V16.733C2.10382 16.7445 2.13053 16.7839 2.1261 16.8262L2.10147 17.0614C2.0913 17.1585 2.04295 17.2476 1.96707 17.309L1.80308 17.4417C1.75259 17.4826 1.70756 17.5298 1.66908 17.5821L1.59506 17.6827C1.58116 17.7017 1.57137 17.7232 1.5663 17.7462L1.56236 17.764C1.54222 17.8551 1.44572 17.907 1.35859 17.8735L1.35155 17.8708C1.30437 17.8527 1.25108 17.8615 1.21219 17.8938V17.8938C1.1619 17.9355 1.14725 18.0065 1.17692 18.0647L1.2294 18.1677C1.2394 18.1874 1.24161 18.21 1.23559 18.2312L1.22769 18.2591C1.2118 18.315 1.13969 18.3301 1.10266 18.2853V18.2853C1.08181 18.2601 1.0466 18.2521 1.01687 18.2657L0.936892 18.3026C0.881166 18.3282 0.841613 18.3796 0.831098 18.4401L0.82486 18.4759C0.822234 18.491 0.820969 18.5063 0.82108 18.5216L0.821172 18.5343C0.822078 18.6594 0.881974 18.7767 0.982763 18.8509L1.08631 18.927L3.23934 20.6562L7.58654 23.8532C7.66427 23.9104 7.74709 23.9603 7.83396 24.0023L8.13072 24.1457C8.22885 24.1931 8.30998 24.2697 8.36303 24.3649V24.3649C8.4 24.4312 8.45079 24.4888 8.51198 24.5338L8.85235 24.7841L10.0765 25.5504C10.148 25.5952 10.2229 25.6342 10.3006 25.6672L10.6302 25.8074C10.8252 25.8903 10.9777 26.0496 11.052 26.248V26.248C11.1039 26.3866 11.1944 26.5074 11.3129 26.5961L17.4528 31.1926C17.6555 31.3443 17.8724 31.4759 18.1006 31.5856V31.5856L18.4002 31.7371C18.6216 31.849 18.8197 32.0019 18.9842 32.1877V32.1877C19.1135 32.3337 19.2638 32.4596 19.4301 32.5614L24.5848 35.7129L27.3385 37.4619C27.4411 37.5271 27.55 37.5819 27.6635 37.6255L27.7243 37.6489C27.9003 37.7165 28.0618 37.8168 28.2004 37.9447L28.3427 38.076C28.4182 38.1457 28.5088 38.1969 28.6074 38.2257V38.2257C28.6821 38.2475 28.7524 38.2822 28.8151 38.3283L29.0029 38.4664L32.1705 40.5919V40.5919C32.506 40.8386 32.7877 41.1512 32.9983 41.5105L33.0451 41.5905C33.1013 41.6864 33.1646 41.778 33.2343 41.8646L33.374 42.0379C33.4031 42.074 33.4368 42.1062 33.4742 42.1337L33.7842 42.3618C33.8524 42.4119 33.867 42.5077 33.8169 42.5758V42.5758C33.7866 42.617 33.7789 42.6705 33.7962 42.7186L33.8598 42.8946C33.8937 42.9885 33.9548 43.0702 34.0352 43.1294L39.0351 46.8065L44.2207 50.7658L45.4204 51.5024L45.7029 51.7101L47.6807 53.1646L49.0533 54.4948L55.2502 59.0522L55.5474 59.2707C55.6252 59.328 55.6957 59.3945 55.7572 59.469L55.9348 59.6839C56.0731 59.8512 56.2855 59.9388 56.5015 59.9176V59.9176C56.6618 59.9018 56.8222 59.9459 56.9519 60.0412L57.1836 60.2117L58.5464 61.4763L59.7943 62.5944C59.9301 62.7161 60.0536 62.8508 60.1631 62.9966L60.286 63.1604C60.2898 63.1654 60.2932 63.1707 60.2962 63.1763L60.4216 63.4112C60.4525 63.469 60.5403 63.4452 60.5378 63.3797V63.3797C60.537 63.3598 60.5459 63.3408 60.5616 63.3286L60.6628 63.2501C60.7517 63.1812 60.7964 63.0697 60.7797 62.9585L60.6959 62.4007C60.6881 62.3485 60.7012 62.2954 60.7325 62.2529L60.7847 62.1819C60.8211 62.1324 60.8105 62.0627 60.7609 62.0262V62.0262C60.7342 62.0066 60.7177 61.9761 60.7157 61.943L60.6784 61.3044C60.6768 61.2777 60.6791 61.2509 60.6852 61.2249L60.7017 61.155C60.7314 61.0287 60.8669 60.958 60.9881 61.0046V61.0046C61.0004 61.0093 61.0133 61.0129 61.0263 61.0151V61.0151C61.1501 61.0362 61.2624 60.9394 61.26 60.8139L61.2594 60.7827C61.258 60.7124 61.224 60.6468 61.1673 60.6051L61.0485 60.5177C61.0133 60.4918 60.9898 60.4529 60.9834 60.4097V60.4097C60.9699 60.3202 61.0313 60.2367 61.1208 60.2228L61.483 60.1668Z" stroke="#C7A6A6"/>
</svg>
