<svg width="75" height="72" viewBox="0 0 75 72" fill="none" xmlns="http://www.w3.org/2000/svg">
<path d="M25.955 9.1334L14.7758 0.911878C14.7654 0.904193 14.7507 0.906434 14.743 0.916883C14.7353 0.927333 14.7206 0.929574 14.7101 0.921889L14.6914 0.908099C14.6706 0.892798 14.6413 0.89726 14.626 0.918066L14.5974 0.956985C14.5887 0.96883 14.5773 0.978492 14.5643 0.985214L14.4217 1.05849C14.3751 1.08246 14.3347 1.11691 14.3036 1.15914C14.2796 1.19175 14.2617 1.22839 14.2506 1.26733L14.2125 1.40137L14.1435 1.59411C14.1345 1.61932 14.1218 1.64308 14.106 1.66465L14.0522 1.73771C14.0312 1.76632 13.9973 1.78254 13.9618 1.78098C13.901 1.7783 13.8503 1.82715 13.8507 1.88807L13.8515 1.99197C13.8516 2.00421 13.8492 2.01636 13.8446 2.02768C13.8274 2.06942 13.7825 2.09258 13.7385 2.0824L13.717 2.0774C13.671 2.06675 13.6231 2.08449 13.5951 2.12252L13.4919 2.2628C13.4722 2.28968 13.4403 2.30493 13.407 2.30346C13.3868 2.30257 13.3668 2.30782 13.3496 2.31851L13.2422 2.38556C13.1912 2.41736 13.1574 2.47063 13.1504 2.53032L13.1493 2.53943C13.1431 2.59277 13.1612 2.64609 13.1986 2.68462C13.2246 2.71137 13.2415 2.7456 13.247 2.78248L13.2551 2.83604C13.2636 2.89273 13.2579 2.95064 13.2386 3.0046L13.2047 3.09927C13.1919 3.135 13.174 3.16868 13.1515 3.19926L13.0451 3.34398C13.0046 3.39902 13.0055 3.47422 13.0472 3.52832C13.0689 3.5564 13.0801 3.59114 13.0791 3.62659L13.0707 3.90033C13.0698 3.92826 13.0724 3.95619 13.0784 3.98349L13.0864 4.02002C13.1087 4.12175 13.0723 4.22741 12.9922 4.29392L12.8602 4.40349C12.8393 4.4208 12.8094 4.42168 12.7875 4.40562C12.7652 4.38922 12.7345 4.39052 12.7137 4.40875L12.606 4.50303C12.593 4.51439 12.5813 4.52712 12.5711 4.54101L12.4845 4.65879C12.4416 4.7171 12.4109 4.78348 12.3944 4.85394L12.3615 4.99362C12.3464 5.05804 12.3038 5.11258 12.2449 5.14283L12.2216 5.15485C12.2059 5.16291 12.1923 5.17451 12.1818 5.18872L12.1488 5.23354C12.1297 5.25955 12.1353 5.29613 12.1613 5.31526C12.1873 5.33439 12.1929 5.37097 12.1738 5.39698L12.1267 5.4609C12.0995 5.49794 12.0556 5.51896 12.0097 5.51693L11.9988 5.51645L11.8278 5.49704C11.817 5.49582 11.8062 5.4978 11.7966 5.50274C11.7604 5.52132 11.7564 5.57142 11.7892 5.5955L11.8677 5.65328C11.8808 5.66286 11.8916 5.67508 11.8996 5.68914L11.9583 5.79246C11.9791 5.82901 11.9569 5.87505 11.9153 5.88148C11.9073 5.88272 11.8991 5.88232 11.8912 5.88029L11.8451 5.86842C11.803 5.85757 11.759 5.85628 11.7163 5.86464L11.3921 5.92818C11.3802 5.93049 11.3689 5.93481 11.3585 5.94093C11.293 5.9796 11.2884 6.07261 11.3496 6.11767L11.3627 6.12731C11.3804 6.14033 11.3941 6.15807 11.4022 6.1785L11.4709 6.35265L11.5758 6.60469C11.5976 6.67734 11.5942 6.7552 11.5662 6.82569L11.4789 7.04561C11.4532 7.11035 11.4063 7.16444 11.3459 7.19906L11.3021 7.22411C11.2614 7.24744 11.2312 7.28561 11.2179 7.33064L11.1811 7.45547C11.1703 7.49214 11.1302 7.51143 11.0948 7.49696C11.0799 7.49088 11.0633 7.49057 11.0482 7.49609L10.9923 7.51656L10.7655 7.57789C10.7244 7.58901 10.6875 7.61208 10.6595 7.64419C10.5809 7.73443 10.591 7.87153 10.6821 7.94918L10.7238 7.98464C10.7517 8.00845 10.773 8.03914 10.7854 8.07368L10.8113 8.1454C10.8191 8.16688 10.8156 8.19082 10.8021 8.20922L10.7928 8.22193C10.7726 8.24938 10.7326 8.25212 10.7088 8.22768C10.6825 8.20056 10.6373 8.20741 10.6202 8.24113L10.537 8.40504C10.5296 8.41967 10.5202 8.43326 10.5092 8.44545L10.4057 8.5604C10.3832 8.58538 10.347 8.59274 10.3165 8.57855C10.2835 8.56316 10.2442 8.57321 10.2226 8.60258L10.2041 8.62777L10.1402 8.73833C10.1126 8.78599 10.0699 8.823 10.0188 8.84343L9.97913 8.85926C9.92506 8.88086 9.86366 8.87302 9.81675 8.83852C9.78064 8.81196 9.73543 8.80089 9.69112 8.80774L9.62933 8.8173L9.46558 8.84264L9.01235 8.95555C8.95941 8.96874 8.90842 8.98881 8.8607 9.01525C8.71835 9.09413 8.61244 9.22546 8.56551 9.38129L8.53807 9.4724L8.49975 9.60729C8.48971 9.64265 8.45998 9.66892 8.42365 9.67454C8.39892 9.67837 8.37369 9.67219 8.35353 9.65736L8.28711 9.60852C8.24042 9.57418 8.18459 9.55449 8.12669 9.55194L7.97971 9.54546C7.96843 9.54496 7.95721 9.54742 7.94716 9.55258C7.90836 9.57253 7.89987 9.62429 7.93027 9.65559L7.93368 9.65911C7.95432 9.68035 7.95898 9.71244 7.94525 9.73868L7.87173 9.87918C7.84275 9.93455 7.78695 9.97077 7.72458 9.97469C7.67246 9.97797 7.62152 9.9583 7.58514 9.92084L7.55151 9.88621C7.54609 9.88063 7.54021 9.87551 7.53394 9.8709L7.50888 9.85247C7.49478 9.8421 7.47714 9.83777 7.45984 9.84045C7.40507 9.84893 7.38468 9.91718 7.42582 9.95431L7.44117 9.96816C7.47227 9.99623 7.47462 10.0442 7.44642 10.0752L7.27177 10.2671C7.22231 10.3214 7.19215 10.3905 7.18595 10.4637L7.16683 10.6897C7.16582 10.7016 7.16319 10.7133 7.15902 10.7245L7.15165 10.7442C7.12742 10.8092 7.051 10.8373 6.99047 10.8035C6.95932 10.7861 6.9218 10.7844 6.88922 10.7989L6.8805 10.8028C6.81722 10.831 6.78646 10.9033 6.81 10.9685L6.85048 11.0806C6.87145 11.1386 6.87112 11.2022 6.84955 11.26L6.83493 11.2992C6.82716 11.32 6.81655 11.3397 6.80338 11.3576L6.79812 11.3647C6.76933 11.4039 6.72811 11.4321 6.6812 11.4448C6.63428 11.4575 6.59306 11.4857 6.56427 11.5249L6.55646 11.5355C6.52703 11.5755 6.51007 11.6233 6.50767 11.6729L6.5058 11.7118C6.5041 11.747 6.49207 11.7809 6.47121 11.8093C6.43111 11.8638 6.36368 11.891 6.29696 11.8797L6.29058 11.8786C6.26451 11.8741 6.2378 11.8752 6.21217 11.8817L5.57314 12.0438L5.4312 12.0957C5.41998 12.0999 5.40929 12.1053 5.39936 12.1119L5.30415 12.1756C5.25129 12.2109 5.25609 12.2901 5.31284 12.3188L5.33971 12.3332C5.40434 12.3678 5.42676 12.4495 5.38882 12.5123C5.35295 12.5716 5.27637 12.5916 5.21609 12.5574L4.99938 12.4343C4.98405 12.4256 4.96804 12.4181 4.95151 12.412L4.85689 12.377C4.83126 12.3675 4.80283 12.3692 4.77853 12.3817C4.74486 12.399 4.72427 12.4342 4.72573 12.4721L4.726 12.4792C4.72785 12.5272 4.76097 12.5683 4.80747 12.5802L4.83307 12.5868C4.84506 12.5899 4.85659 12.5945 4.86739 12.6006L4.88544 12.6106C4.96761 12.6565 5.0239 12.7379 5.03788 12.8309L5.05427 12.9401C5.05482 12.9437 5.0551 12.9474 5.05513 12.9511C5.05552 13.0052 5.00182 13.0432 4.95088 13.0248L4.69537 12.9325C4.67596 12.9254 4.65744 12.9162 4.64016 12.9049L4.5107 12.8204C4.40387 12.7507 4.26033 12.786 4.19801 12.8973C4.15558 12.9731 4.16166 13.0668 4.21355 13.1365L4.35841 13.331C4.40831 13.3981 4.37316 13.4943 4.29181 13.5133C4.26706 13.5191 4.2449 13.5329 4.22874 13.5525L4.12393 13.6797C4.04229 13.7787 4.04 13.9211 4.11842 14.0227L4.15481 14.0699C4.17876 14.1009 4.18858 14.1406 4.18186 14.1792L4.16346 14.285C4.1526 14.3474 4.07718 14.3734 4.03012 14.331C3.99473 14.299 3.93949 14.3046 3.91125 14.343L3.78429 14.5157C3.7475 14.5657 3.72877 14.6267 3.73116 14.6888L3.73202 14.7112C3.73283 14.7323 3.73562 14.7533 3.74036 14.7739L3.75457 14.8358C3.77149 14.9094 3.75101 14.9866 3.69984 15.0422L3.65332 15.0927C3.64319 15.1037 3.62921 15.1104 3.6143 15.1113C3.56022 15.1147 3.53992 15.1838 3.58357 15.2159L3.59182 15.222C3.60086 15.2286 3.60792 15.2376 3.61223 15.248L3.70333 15.467C3.7081 15.4784 3.71144 15.4904 3.71329 15.5027C3.7233 15.5694 3.68804 15.6347 3.62676 15.6629L3.57944 15.6847C3.53494 15.7052 3.48489 15.7103 3.43716 15.6993L3.39641 15.6898C3.3585 15.681 3.31865 15.6877 3.28563 15.7083L3.26728 15.7197C3.24353 15.7345 3.22721 15.7588 3.22242 15.7863L3.21963 15.8023C3.21494 15.8293 3.22592 15.8566 3.24799 15.8729L3.27551 15.8931C3.29243 15.9056 3.31624 15.9019 3.32868 15.885C3.33216 15.8803 3.3345 15.8748 3.33551 15.869L3.34144 15.8349C3.34244 15.8291 3.34478 15.8236 3.34827 15.8189C3.36071 15.802 3.38451 15.7984 3.40143 15.8108L3.45397 15.8494C3.46126 15.8548 3.46763 15.8613 3.47284 15.8687C3.49358 15.8982 3.49318 15.9376 3.47184 15.9666L3.45854 15.9847C3.44514 16.0029 3.42667 16.0168 3.40543 16.0245L3.35858 16.0417L3.20297 16.1111C3.19164 16.1161 3.18129 16.1231 3.17241 16.1318L3.14697 16.1566C3.11375 16.1889 3.11751 16.2434 3.15488 16.2708C3.18829 16.2954 3.19545 16.3424 3.17088 16.3758L3.16613 16.3823C3.15311 16.4 3.13361 16.4118 3.11189 16.4152L3.0803 16.4201C3.03835 16.4266 3.00068 16.4494 2.97553 16.4836L2.85304 16.6502C2.81688 16.6993 2.84102 16.7695 2.89978 16.786C2.94074 16.7975 2.96745 16.8368 2.96301 16.8792L2.93838 17.1144C2.92821 17.2115 2.87986 17.3006 2.80398 17.362L2.63999 17.4947C2.58951 17.5356 2.54447 17.5828 2.50599 17.6351L2.43198 17.7357C2.41808 17.7546 2.40828 17.7762 2.40321 17.7991L2.39927 17.817C2.37913 17.9081 2.28264 17.96 2.19551 17.9265L2.18847 17.9238C2.14129 17.9057 2.088 17.9145 2.0491 17.9467C1.99882 17.9885 1.98417 18.0595 2.01384 18.1177L2.06631 18.2207C2.07631 18.2403 2.07853 18.263 2.0725 18.2842L2.0646 18.3121C2.04871 18.368 1.97661 18.3831 1.93958 18.3383C1.91873 18.3131 1.88351 18.305 1.85378 18.3187L1.77381 18.3555C1.71808 18.3812 1.67853 18.4326 1.66801 18.4931L1.66177 18.5289C1.65915 18.544 1.65788 18.5593 1.65799 18.5746L1.65809 18.5873C1.65899 18.7124 1.71889 18.8297 1.81968 18.9038L1.92322 18.98L4.07626 20.7092L8.42345 23.9062C8.50118 23.9634 8.584 24.0133 8.67088 24.0552L8.96763 24.1987C9.06577 24.2461 9.14689 24.3226 9.19994 24.4178C9.23691 24.4842 9.28771 24.5418 9.34889 24.5868L9.68926 24.8371L10.9134 25.6034C10.9849 25.6481 11.0598 25.6872 11.1375 25.7202L11.4671 25.8604C11.6621 25.9433 11.8146 26.1026 11.8889 26.301C11.9408 26.4396 12.0313 26.5604 12.1498 26.649L18.2897 31.2455C18.4924 31.3973 18.7093 31.5289 18.9375 31.6386L19.2371 31.7901C19.4585 31.902 19.6566 32.0549 19.8211 32.2407C19.9504 32.3867 20.1007 32.5126 20.2671 32.6143L25.4217 35.7658L28.1754 37.5149C28.278 37.5801 28.3869 37.6349 28.5004 37.6785L28.5612 37.7018C28.7372 37.7694 28.8987 37.8698 29.0373 37.9977L29.1796 38.129C29.2551 38.1987 29.3457 38.2499 29.4443 38.2787C29.519 38.3005 29.5893 38.3352 29.652 38.3813L29.8398 38.5194L33.0074 40.6449C33.3429 40.8916 33.6246 41.2042 33.8352 41.5635L33.882 41.6434C33.9382 41.7394 34.0015 41.831 34.0712 41.9175L34.2109 42.0909C34.24 42.127 34.2737 42.1592 34.3111 42.1867L34.6212 42.4147C34.6893 42.4648 34.7039 42.5607 34.6538 42.6288C34.6235 42.67 34.6158 42.7235 34.6331 42.7715L34.6967 42.9476C34.7306 43.0415 34.7917 43.1232 34.8721 43.1823L39.872 46.8594L45.0576 50.8188L46.2573 51.5553L46.5398 51.7631L48.5176 53.2176L49.8902 54.5477L56.0871 59.1051L56.3843 59.3237C56.4621 59.3809 56.5326 59.4475 56.5941 59.522L56.7717 59.7369C56.91 59.9042 57.1224 59.9918 57.3385 59.9705C57.4987 59.9548 57.6591 59.9988 57.7888 60.0942L58.0206 60.2647L59.3833 61.5293L60.6312 62.6474C60.767 62.7691 60.8905 62.9038 61 63.0496L61.1229 63.2134C61.1267 63.2184 61.1301 63.2237 61.1331 63.2293L61.2585 63.4642C61.2894 63.522 61.3772 63.4982 61.3747 63.4327C61.3739 63.4128 61.3828 63.3938 61.3986 63.3816L61.4997 63.3031C61.5886 63.2342 61.6333 63.1227 61.6166 63.0114L61.5328 62.4537C61.525 62.4015 61.5381 62.3484 61.5694 62.3059L61.6216 62.2349C61.658 62.1854 61.6474 62.1157 61.5978 62.0792C61.5712 62.0596 61.5546 62.0291 61.5526 61.996L61.5153 61.3573C61.5137 61.3307 61.516 61.3039 61.5222 61.2779L61.5386 61.208C61.5683 61.0816 61.7038 61.011 61.825 61.0576C61.8373 61.0623 61.8502 61.0658 61.8632 61.0681C61.987 61.0891 62.0993 60.9924 62.0969 60.8669L62.0963 60.8357C62.0949 60.7654 62.0609 60.6997 62.0042 60.6581L61.8854 60.5707C61.8502 60.5448 61.8268 60.5059 61.8203 60.4627C61.8068 60.3732 61.8683 60.2896 61.9577 60.2758L62.32 60.2197L62.3693 60.3167C62.4012 60.3792 62.4877 60.3863 62.5293 60.3297C62.5338 60.3236 62.5376 60.3168 62.5405 60.3097L62.6958 59.9322C62.7114 59.8943 62.7106 59.8516 62.6936 59.8143C62.6554 59.7304 62.7021 59.6323 62.7914 59.6092L62.8585 59.5919C62.9124 59.5779 62.9585 59.5428 62.9861 59.4944L63.447 58.6872L63.6284 58.4406C63.6896 58.3574 63.6717 58.2403 63.5885 58.1791L63.5324 58.1378C63.4802 58.0994 63.469 58.0259 63.5074 57.9737C63.5458 57.9214 63.5346 57.8479 63.4824 57.8095L63.4012 57.7498C63.3356 57.7016 63.3023 57.6208 63.3149 57.5404L63.3615 57.2424C63.3792 57.1291 63.4239 57.0217 63.4919 56.9293L63.6009 56.781C63.6865 56.6646 63.7147 56.5157 63.6776 56.3761C63.6654 56.3303 63.6602 56.283 63.662 56.2356L63.6686 56.0585C63.6779 55.8138 63.7604 55.5776 63.9055 55.3803L63.9479 55.3226C63.9835 55.2742 64.0345 55.2393 64.0924 55.2236C64.2101 55.1918 64.3343 55.2442 64.3937 55.3507L64.4303 55.4164L64.4936 55.522C64.5471 55.6111 64.6579 55.6473 64.7537 55.6071C64.808 55.5842 64.8694 55.5854 64.9228 55.6102L65.0262 55.6584C65.1059 55.6955 65.2007 55.6713 65.2527 55.6005L65.2555 55.5967C65.2681 55.5796 65.2771 55.5603 65.2822 55.5397L65.3246 55.3672C65.3348 55.3256 65.2966 55.2883 65.2553 55.2994C65.2258 55.3074 65.1954 55.2905 65.1867 55.2613L65.1536 55.1509C65.1252 55.0561 65.1813 54.9566 65.2771 54.9318L65.3863 54.9036C65.4108 54.8972 65.4324 54.8827 65.4473 54.8623C65.4678 54.8345 65.5001 54.8179 65.5347 54.8175L65.6219 54.8165C65.7464 54.815 65.8555 54.7329 65.8914 54.6137L65.919 54.5221C65.9273 54.4946 65.9273 54.4653 65.9191 54.4377C65.9059 54.3937 65.9141 54.3459 65.9414 54.3089L65.9513 54.2955C65.9707 54.269 65.9998 54.2514 66.0322 54.2464L66.0356 54.2459C66.0823 54.2386 66.1203 54.2043 66.1322 54.1586L66.1483 54.097C66.1618 54.0454 66.2231 54.0237 66.266 54.0553C66.3062 54.0848 66.3635 54.068 66.3812 54.0214L66.4781 53.7673C66.4939 53.7258 66.4997 53.6812 66.4951 53.637L66.4283 53.0071C66.4239 52.966 66.4227 52.9247 66.4247 52.8834C66.4308 52.7575 66.4072 52.632 66.3559 52.5169L66.1605 52.0782C66.1264 52.0019 66.136 51.9132 66.1855 51.8459C66.2232 51.7946 66.2803 51.761 66.3435 51.753L66.6093 51.7192C66.7685 51.6989 66.9302 51.7238 67.076 51.7909L67.4869 51.9801C67.6732 52.0659 67.8941 52.0088 68.0156 51.8436L68.0978 51.7318C68.1805 51.6194 68.2932 51.5327 68.423 51.4816L68.5264 51.4408C68.6468 51.3934 68.7812 51.3967 68.8991 51.4502C69.0425 51.5152 69.2088 51.5054 69.3437 51.424L69.3894 51.3963L69.5089 51.3443C69.6199 51.296 69.7483 51.3104 69.8458 51.3821C69.9358 51.4483 70.0527 51.466 70.1583 51.4295L70.3209 51.3732C70.3336 51.3688 70.346 51.3635 70.358 51.3573C70.4602 51.3048 70.5209 51.1961 70.5119 51.0816L70.5036 50.9752C70.4953 50.8682 70.4408 50.7702 70.3544 50.7067L70.2165 50.6052C70.1286 50.5406 70.1097 50.4169 70.1744 50.329C70.1978 50.2971 70.2111 50.2589 70.2126 50.2193L70.2262 49.8612C70.2307 49.7412 70.3177 49.6403 70.4357 49.6181C70.5936 49.5884 70.6859 49.4229 70.6283 49.273L70.1472 48.022C70.0158 47.6802 70.0262 47.3001 70.1761 46.9661L71.1036 44.8998C71.2067 44.67 71.2587 44.4206 71.2559 44.1688C71.2501 43.6479 71.0109 43.1571 70.6043 42.8315L57.9314 32.6843C57.579 32.4021 57.1926 32.1651 56.7814 31.9788L54.4699 30.9317C54.3012 30.8552 54.1806 30.7009 54.1472 30.5187C54.1219 30.3806 54.0461 30.2569 53.9347 30.1717L38.7302 18.538C38.5204 18.3774 38.2925 18.2419 38.0513 18.1341L37.1809 17.7451C36.9352 17.6354 36.7417 17.4345 36.6412 17.1849C36.569 17.0059 36.4485 16.8506 36.293 16.7362L31.8973 13.5035L29.1507 11.95L28.3407 11.3544L28.2179 11.264C27.7991 10.956 27.4191 10.5983 27.0865 10.1987C26.7538 9.79915 26.3739 9.44143 25.955 9.1334Z" fill="#DBD7D2"/>
<path d="M62.2724 60.1265L62.32 60.2197M62.32 60.2197L62.3694 60.3167C62.4012 60.3792 62.4877 60.3863 62.5293 60.3297V60.3297C62.5338 60.3236 62.5376 60.3168 62.5405 60.3097L62.6958 59.9322C62.7114 59.8943 62.7106 59.8516 62.6936 59.8143V59.8143C62.6554 59.7304 62.7021 59.6323 62.7914 59.6092L62.8585 59.5919C62.9125 59.5779 62.9585 59.5428 62.9861 59.4944L63.447 58.6872L63.6284 58.4406C63.6896 58.3574 63.6717 58.2403 63.5885 58.1791L63.5324 58.1378C63.4802 58.0994 63.469 58.0259 63.5074 57.9737V57.9737C63.5458 57.9214 63.5346 57.8479 63.4824 57.8095L63.4012 57.7498C63.3356 57.7016 63.3023 57.6208 63.3149 57.5404L63.3615 57.2424C63.3792 57.1291 63.4239 57.0217 63.4919 56.9293L63.6009 56.781C63.6865 56.6646 63.7147 56.5157 63.6776 56.3761V56.3761C63.6654 56.3303 63.6602 56.283 63.662 56.2356L63.6687 56.0585C63.6779 55.8138 63.7604 55.5776 63.9055 55.3803V55.3803L63.9479 55.3226C63.9835 55.2742 64.0344 55.2393 64.0924 55.2236V55.2236C64.2101 55.1918 64.3343 55.2442 64.3937 55.3507L64.4303 55.4164L64.4936 55.522C64.5471 55.6111 64.6579 55.6473 64.7537 55.6071V55.6071C64.808 55.5842 64.8694 55.5854 64.9228 55.6102L65.0262 55.6584C65.1059 55.6955 65.2007 55.6713 65.2527 55.6005L65.2555 55.5967C65.2681 55.5796 65.2771 55.5603 65.2822 55.5397L65.3246 55.3672C65.3348 55.3256 65.2966 55.2883 65.2552 55.2994V55.2994C65.2258 55.3074 65.1954 55.2905 65.1867 55.2613L65.1536 55.1509C65.1252 55.0561 65.1813 54.9566 65.2771 54.9318L65.3863 54.9036C65.4108 54.8972 65.4324 54.8827 65.4473 54.8623V54.8623C65.4678 54.8345 65.5001 54.8179 65.5347 54.8175L65.6219 54.8165C65.7464 54.815 65.8555 54.7329 65.8914 54.6137L65.919 54.5221C65.9273 54.4946 65.9273 54.4653 65.9191 54.4377V54.4377C65.9059 54.3937 65.9141 54.3459 65.9414 54.3089L65.9513 54.2954C65.9707 54.269 65.9998 54.2514 66.0322 54.2464L66.0356 54.2459C66.0823 54.2386 66.1203 54.2043 66.1322 54.1586L66.1483 54.097C66.1618 54.0454 66.2231 54.0237 66.266 54.0553V54.0553C66.3062 54.0848 66.3635 54.068 66.3812 54.0214L66.4781 53.7673C66.4939 53.7258 66.4997 53.6812 66.4951 53.637L66.4283 53.0071C66.4239 52.966 66.4227 52.9247 66.4247 52.8834V52.8834C66.4308 52.7575 66.4072 52.632 66.3559 52.5169L66.1605 52.0782C66.1264 52.0019 66.136 51.9132 66.1855 51.8459V51.8459C66.2232 51.7946 66.2803 51.761 66.3435 51.753L66.6093 51.7192C66.7685 51.6989 66.9302 51.7238 67.076 51.7909L67.4869 51.9801C67.6732 52.0659 67.8941 52.0088 68.0156 51.8436V51.8436L68.0978 51.7318C68.1805 51.6194 68.2932 51.5327 68.423 51.4816L68.5264 51.4408C68.6468 51.3934 68.7812 51.3967 68.8991 51.4502V51.4502C69.0425 51.5152 69.2088 51.5054 69.3437 51.424L69.3894 51.3963L69.5089 51.3443C69.6199 51.296 69.7483 51.3104 69.8458 51.3821V51.3821C69.9358 51.4483 70.0527 51.466 70.1583 51.4295L70.3209 51.3732C70.3336 51.3688 70.346 51.3635 70.358 51.3573V51.3573C70.4602 51.3048 70.5209 51.1961 70.5119 51.0816L70.5036 50.9752C70.4953 50.8682 70.4408 50.7702 70.3544 50.7067L70.2165 50.6052C70.1286 50.5406 70.1097 50.4169 70.1744 50.329V50.329C70.1978 50.2971 70.2111 50.2589 70.2126 50.2193L70.2262 49.8612C70.2307 49.7412 70.3177 49.6403 70.4357 49.6181V49.6181C70.5936 49.5884 70.686 49.4229 70.6283 49.273L70.1472 48.022C70.0158 47.6802 70.0262 47.3001 70.1761 46.9661L71.1036 44.8998C71.2067 44.67 71.2587 44.4206 71.2559 44.1688V44.1688C71.2501 43.6479 71.0109 43.1571 70.6043 42.8315L57.9314 32.6843C57.579 32.4021 57.1926 32.1651 56.7814 31.9788L54.4699 30.9317C54.3012 30.8552 54.1806 30.7009 54.1472 30.5187V30.5187C54.1219 30.3806 54.0461 30.2569 53.9347 30.1717L38.7302 18.538C38.5204 18.3774 38.2925 18.2419 38.0513 18.1341L37.1809 17.7451C36.9352 17.6354 36.7417 17.4345 36.6412 17.1849V17.1849C36.569 17.0059 36.4485 16.8506 36.293 16.7362L31.8973 13.5035L29.1507 11.95L28.3407 11.3544L28.2179 11.264C27.7991 10.956 27.4191 10.5983 27.0865 10.1987V10.1987C26.7538 9.79915 26.3739 9.44143 25.955 9.1334L14.7758 0.911878C14.7654 0.904193 14.7507 0.906434 14.743 0.916883V0.916883C14.7353 0.927333 14.7206 0.929574 14.7101 0.921889L14.6914 0.908099C14.6706 0.892798 14.6413 0.89726 14.626 0.918066L14.5974 0.956985C14.5887 0.96883 14.5773 0.978492 14.5643 0.985214L14.4217 1.05849C14.3751 1.08246 14.3347 1.11691 14.3036 1.15914V1.15914C14.2796 1.19175 14.2617 1.22839 14.2506 1.26733L14.2125 1.40137L14.1435 1.59411C14.1345 1.61932 14.1218 1.64308 14.106 1.66465L14.0522 1.73771C14.0312 1.76632 13.9973 1.78254 13.9618 1.78098V1.78098C13.901 1.7783 13.8503 1.82715 13.8507 1.88807L13.8515 1.99197C13.8516 2.00421 13.8492 2.01636 13.8446 2.02768V2.02768C13.8274 2.06942 13.7825 2.09258 13.7385 2.0824L13.717 2.0774C13.671 2.06675 13.6231 2.08449 13.5951 2.12252L13.4919 2.2628C13.4722 2.28968 13.4403 2.30493 13.407 2.30346V2.30346C13.3868 2.30257 13.3668 2.30782 13.3496 2.31851L13.2422 2.38556C13.1912 2.41736 13.1574 2.47063 13.1504 2.53032L13.1493 2.53943C13.1431 2.59277 13.1612 2.64609 13.1986 2.68462V2.68462C13.2246 2.71137 13.2415 2.7456 13.247 2.78248L13.2551 2.83604C13.2636 2.89273 13.2579 2.95064 13.2386 3.0046L13.2047 3.09927C13.1919 3.135 13.174 3.16868 13.1515 3.19926L13.0451 3.34398C13.0046 3.39902 13.0055 3.47422 13.0472 3.52832V3.52832C13.0689 3.5564 13.0801 3.59114 13.0791 3.62659L13.0707 3.90033C13.0698 3.92826 13.0724 3.95619 13.0784 3.98349L13.0864 4.02002C13.1087 4.12175 13.0723 4.22741 12.9922 4.29392L12.8602 4.40349C12.8393 4.4208 12.8094 4.42168 12.7875 4.40562V4.40562C12.7652 4.38922 12.7345 4.39052 12.7137 4.40875L12.606 4.50303C12.593 4.51439 12.5813 4.52712 12.5711 4.54101L12.4845 4.65879C12.4416 4.7171 12.4109 4.78348 12.3944 4.85394L12.3615 4.99362C12.3464 5.05804 12.3038 5.11258 12.2449 5.14283L12.2216 5.15485C12.2059 5.16291 12.1923 5.17451 12.1818 5.18872L12.1488 5.23354C12.1297 5.25955 12.1353 5.29613 12.1613 5.31526V5.31526C12.1873 5.33439 12.1929 5.37097 12.1738 5.39698L12.1267 5.4609C12.0995 5.49794 12.0556 5.51896 12.0097 5.51693L11.9988 5.51645L11.8278 5.49704C11.817 5.49582 11.8062 5.4978 11.7966 5.50274V5.50274C11.7604 5.52132 11.7564 5.57142 11.7892 5.5955L11.8677 5.65328C11.8808 5.66286 11.8916 5.67508 11.8996 5.68914L11.9583 5.79246C11.9791 5.82901 11.9569 5.87505 11.9153 5.88148V5.88148C11.9073 5.88272 11.8991 5.88232 11.8912 5.88029L11.8451 5.86842C11.803 5.85757 11.759 5.85628 11.7163 5.86464L11.3921 5.92818C11.3802 5.93049 11.3689 5.93481 11.3585 5.94093V5.94093C11.293 5.9796 11.2884 6.07261 11.3496 6.11767L11.3627 6.12731C11.3804 6.14033 11.3941 6.15807 11.4022 6.1785L11.4709 6.35265L11.5758 6.60469V6.60469C11.5976 6.67734 11.5942 6.7552 11.5662 6.82569L11.4789 7.04561C11.4532 7.11035 11.4063 7.16444 11.3459 7.19906L11.3021 7.22411C11.2614 7.24744 11.2312 7.28561 11.2179 7.33064L11.1811 7.45547C11.1703 7.49214 11.1302 7.51143 11.0948 7.49696V7.49696C11.0799 7.49088 11.0633 7.49057 11.0482 7.49609L10.9923 7.51656L10.7655 7.57789C10.7244 7.58901 10.6875 7.61208 10.6595 7.64419V7.64419C10.5809 7.73443 10.591 7.87153 10.6821 7.94918L10.7238 7.98464C10.7517 8.00845 10.773 8.03914 10.7854 8.07368L10.8113 8.1454C10.8191 8.16688 10.8156 8.19082 10.8021 8.20922L10.7928 8.22193C10.7726 8.24938 10.7326 8.25212 10.7088 8.22768V8.22768C10.6825 8.20056 10.6373 8.20741 10.6202 8.24113L10.537 8.40504C10.5296 8.41967 10.5202 8.43326 10.5092 8.44545L10.4057 8.5604C10.3832 8.58538 10.347 8.59274 10.3165 8.57855V8.57855C10.2835 8.56316 10.2442 8.57321 10.2226 8.60258L10.2041 8.62777L10.1402 8.73833C10.1126 8.78599 10.0699 8.823 10.0188 8.84342L9.97913 8.85926C9.92506 8.88086 9.86366 8.87302 9.81675 8.83852V8.83852C9.78063 8.81196 9.73543 8.80089 9.69112 8.80774L9.62933 8.8173L9.46558 8.84264L9.01235 8.95555C8.95941 8.96874 8.90842 8.98881 8.8607 9.01525V9.01525C8.71835 9.09413 8.61244 9.22546 8.56551 9.38129L8.53807 9.4724L8.49975 9.60729C8.48971 9.64265 8.45998 9.66892 8.42365 9.67454V9.67454C8.39892 9.67837 8.37369 9.67219 8.35353 9.65736L8.28711 9.60852C8.24042 9.57418 8.18459 9.55449 8.12669 9.55194L7.97971 9.54546C7.96843 9.54496 7.95721 9.54742 7.94716 9.55258V9.55258C7.90836 9.57253 7.89987 9.62429 7.93027 9.65559L7.93368 9.65911C7.95432 9.68035 7.95898 9.71244 7.94525 9.73868L7.87173 9.87918C7.84275 9.93455 7.78695 9.97077 7.72458 9.97469V9.97469C7.67246 9.97797 7.62152 9.9583 7.58514 9.92084L7.55151 9.88621C7.54609 9.88063 7.54021 9.87551 7.53395 9.8709L7.50888 9.85247C7.49478 9.8421 7.47714 9.83777 7.45984 9.84045V9.84045C7.40507 9.84893 7.38468 9.91718 7.42582 9.95431L7.44117 9.96816C7.47227 9.99623 7.47462 10.0442 7.44642 10.0752L7.27177 10.2671C7.22231 10.3214 7.19215 10.3905 7.18595 10.4637L7.16683 10.6897C7.16582 10.7016 7.16319 10.7133 7.15902 10.7245L7.15165 10.7442C7.12742 10.8092 7.051 10.8373 6.99047 10.8035V10.8035C6.95932 10.7861 6.9218 10.7844 6.88922 10.7989L6.8805 10.8028C6.81722 10.831 6.78646 10.9033 6.81 10.9685L6.85048 11.0806C6.87145 11.1386 6.87112 11.2022 6.84955 11.26L6.83493 11.2992C6.82716 11.32 6.81655 11.3397 6.80339 11.3576L6.79812 11.3647C6.76933 11.4039 6.72811 11.4321 6.6812 11.4448V11.4448C6.63428 11.4575 6.59306 11.4857 6.56427 11.5249L6.55646 11.5355C6.52703 11.5755 6.51007 11.6233 6.50767 11.6729L6.5058 11.7118C6.5041 11.747 6.49207 11.7809 6.47121 11.8093V11.8093C6.43111 11.8638 6.36368 11.891 6.29696 11.8797L6.29058 11.8786C6.26451 11.8741 6.2378 11.8752 6.21217 11.8817L5.57314 12.0438L5.4312 12.0957C5.41998 12.0999 5.40929 12.1053 5.39936 12.1119L5.30415 12.1756C5.25129 12.2109 5.25609 12.2901 5.31284 12.3188V12.3188L5.33971 12.3332C5.40434 12.3678 5.42676 12.4495 5.38882 12.5123V12.5123C5.35295 12.5716 5.27637 12.5916 5.21609 12.5574L4.99938 12.4343C4.98405 12.4256 4.96804 12.4181 4.95151 12.412L4.85689 12.377C4.83126 12.3675 4.80283 12.3692 4.77853 12.3817V12.3817C4.74486 12.399 4.72427 12.4342 4.72573 12.4721L4.726 12.4792C4.72785 12.5272 4.76097 12.5683 4.80747 12.5802L4.83307 12.5868C4.84506 12.5899 4.85659 12.5945 4.86739 12.6006L4.88544 12.6106C4.96761 12.6565 5.0239 12.7379 5.03788 12.8309L5.05427 12.9401C5.05482 12.9437 5.0551 12.9474 5.05513 12.9511V12.9511C5.05552 13.0052 5.00182 13.0432 4.95088 13.0248L4.69537 12.9325C4.67596 12.9254 4.65744 12.9162 4.64016 12.9049L4.5107 12.8204C4.40387 12.7507 4.26033 12.786 4.19801 12.8973V12.8973C4.15557 12.9731 4.16166 13.0668 4.21355 13.1365L4.35841 13.331C4.40831 13.3981 4.37316 13.4943 4.29181 13.5133V13.5133C4.26706 13.5191 4.2449 13.5329 4.22874 13.5525L4.12393 13.6797C4.04228 13.7787 4.04 13.9211 4.11842 14.0227L4.15481 14.0699C4.17877 14.1009 4.18858 14.1406 4.18186 14.1792L4.16346 14.285C4.1526 14.3474 4.07718 14.3734 4.03012 14.331V14.331C3.99473 14.299 3.93949 14.3046 3.91125 14.343L3.7843 14.5157C3.7475 14.5657 3.72877 14.6267 3.73116 14.6888L3.73202 14.7112C3.73283 14.7323 3.73562 14.7533 3.74036 14.7739L3.75457 14.8358C3.77149 14.9094 3.75101 14.9867 3.69984 15.0422L3.65332 15.0927C3.64319 15.1037 3.62921 15.1104 3.6143 15.1113V15.1113C3.56022 15.1147 3.53992 15.1838 3.58357 15.2159L3.59182 15.222C3.60086 15.2286 3.60792 15.2376 3.61223 15.248L3.70333 15.467C3.7081 15.4784 3.71144 15.4904 3.71329 15.5027V15.5027C3.7233 15.5694 3.68804 15.6347 3.62676 15.6629L3.57944 15.6847C3.53494 15.7052 3.48489 15.7103 3.43716 15.6993L3.39641 15.6898C3.3585 15.681 3.31865 15.6877 3.28563 15.7083L3.26728 15.7197C3.24353 15.7345 3.22721 15.7588 3.22242 15.7863L3.21963 15.8023C3.21494 15.8293 3.22592 15.8566 3.24799 15.8729L3.27551 15.8931C3.29243 15.9056 3.31624 15.9019 3.32868 15.885V15.885C3.33216 15.8803 3.3345 15.8748 3.33551 15.869L3.34144 15.8349C3.34245 15.8291 3.34478 15.8236 3.34827 15.8189V15.8189C3.36071 15.802 3.38451 15.7984 3.40143 15.8108L3.45397 15.8494C3.46126 15.8548 3.46763 15.8613 3.47284 15.8687V15.8687C3.49358 15.8982 3.49318 15.9376 3.47184 15.9666L3.45854 15.9847C3.44514 16.0029 3.42667 16.0168 3.40543 16.0245L3.35858 16.0417L3.20297 16.1111C3.19164 16.1161 3.18129 16.1231 3.17241 16.1318L3.14697 16.1566C3.11375 16.1889 3.11751 16.2434 3.15488 16.2708V16.2708C3.18829 16.2954 3.19545 16.3424 3.17088 16.3758L3.16613 16.3823C3.15311 16.4 3.13361 16.4118 3.11189 16.4152L3.0803 16.4201C3.03835 16.4266 3.00068 16.4494 2.97553 16.4836L2.85304 16.6502C2.81688 16.6993 2.84102 16.7695 2.89978 16.786V16.786C2.94074 16.7975 2.96745 16.8368 2.96301 16.8792L2.93838 17.1144C2.92821 17.2115 2.87986 17.3006 2.80398 17.362L2.63999 17.4947C2.58951 17.5356 2.54447 17.5828 2.50599 17.6351L2.43198 17.7357C2.41808 17.7546 2.40828 17.7762 2.40322 17.7991L2.39927 17.817C2.37913 17.9081 2.28264 17.96 2.19551 17.9265L2.18847 17.9238C2.14129 17.9057 2.088 17.9145 2.0491 17.9467V17.9467C1.99881 17.9885 1.98417 18.0595 2.01384 18.1177L2.06631 18.2207C2.07631 18.2403 2.07853 18.263 2.07251 18.2842L2.0646 18.312C2.04871 18.368 1.97661 18.3831 1.93958 18.3383V18.3383C1.91873 18.3131 1.88351 18.305 1.85378 18.3187L1.77381 18.3555C1.71808 18.3812 1.67853 18.4326 1.66801 18.4931L1.66177 18.5289C1.65915 18.544 1.65788 18.5593 1.65799 18.5746L1.65809 18.5873C1.65899 18.7124 1.71889 18.8297 1.81968 18.9038L1.92323 18.98L4.07625 20.7092L8.42345 23.9062C8.50118 23.9634 8.584 24.0133 8.67088 24.0552L8.96763 24.1987C9.06577 24.2461 9.14689 24.3226 9.19994 24.4178V24.4178C9.23691 24.4842 9.28771 24.5418 9.34889 24.5868L9.68926 24.8371L10.9134 25.6034C10.9849 25.6481 11.0598 25.6872 11.1375 25.7202L11.4671 25.8604C11.6621 25.9433 11.8146 26.1026 11.8889 26.301V26.301C11.9408 26.4396 12.0313 26.5604 12.1498 26.649L18.2897 31.2455C18.4924 31.3973 18.7093 31.5289 18.9375 31.6386V31.6386L19.2371 31.7901C19.4585 31.902 19.6566 32.0549 19.8211 32.2407V32.2407C19.9504 32.3867 20.1007 32.5126 20.2671 32.6143L25.4217 35.7658L28.1754 37.5149C28.278 37.5801 28.3869 37.6349 28.5004 37.6785L28.5612 37.7018C28.7372 37.7694 28.8987 37.8698 29.0373 37.9977L29.1796 38.129C29.2551 38.1987 29.3457 38.2499 29.4443 38.2787V38.2787C29.519 38.3005 29.5893 38.3352 29.652 38.3813L29.8398 38.5194L33.0074 40.6449V40.6449C33.3429 40.8916 33.6246 41.2042 33.8352 41.5635L33.882 41.6434C33.9382 41.7394 34.0015 41.831 34.0712 41.9175L34.2109 42.0909C34.24 42.127 34.2737 42.1592 34.3111 42.1867L34.6212 42.4147C34.6893 42.4648 34.7039 42.5607 34.6538 42.6288V42.6288C34.6235 42.67 34.6158 42.7235 34.6331 42.7715L34.6967 42.9476C34.7306 43.0415 34.7917 43.1232 34.8721 43.1823L39.872 46.8594L45.0576 50.8188L46.2573 51.5553L46.5398 51.7631L48.5176 53.2176L49.8902 54.5478L56.0871 59.1051L56.3843 59.3237C56.4621 59.3809 56.5326 59.4475 56.5941 59.522L56.7717 59.7369C56.91 59.9042 57.1224 59.9918 57.3385 59.9705V59.9705C57.4987 59.9548 57.6591 59.9988 57.7888 60.0942L58.0206 60.2647L59.3833 61.5293L60.6312 62.6474C60.767 62.7691 60.8905 62.9038 61 63.0496L61.1229 63.2134C61.1267 63.2184 61.1301 63.2237 61.1331 63.2293L61.2585 63.4642C61.2894 63.522 61.3772 63.4982 61.3747 63.4327V63.4327C61.3739 63.4128 61.3828 63.3938 61.3986 63.3816L61.4997 63.3031C61.5886 63.2342 61.6333 63.1227 61.6166 63.0114L61.5328 62.4537C61.525 62.4015 61.5381 62.3484 61.5694 62.3059L61.6216 62.2349C61.658 62.1854 61.6474 62.1157 61.5978 62.0792V62.0792C61.5711 62.0596 61.5546 62.0291 61.5526 61.996L61.5153 61.3573C61.5137 61.3307 61.516 61.3039 61.5222 61.2779L61.5386 61.208C61.5683 61.0816 61.7038 61.011 61.825 61.0576V61.0576C61.8373 61.0623 61.8502 61.0658 61.8632 61.0681V61.0681C61.987 61.0891 62.0993 60.9924 62.0969 60.8669L62.0963 60.8357C62.0949 60.7654 62.0609 60.6997 62.0042 60.6581L61.8854 60.5707C61.8502 60.5448 61.8268 60.5059 61.8203 60.4627V60.4627C61.8068 60.3732 61.8683 60.2896 61.9577 60.2758L62.32 60.2197Z" stroke="#C7A6A6"/>
<path d="M11.7307 45.2314L2.43057 55.5307C2.42187 55.5403 2.42263 55.5552 2.43226 55.5639C2.44188 55.5726 2.44264 55.5874 2.43395 55.5971L2.41835 55.6143C2.40104 55.6335 2.40255 55.6631 2.42172 55.6804L2.45757 55.7128C2.46848 55.7226 2.47696 55.7349 2.48234 55.7485L2.54097 55.8977C2.56014 55.9465 2.59037 55.9902 2.62928 56.0253C2.65932 56.0524 2.69398 56.074 2.73162 56.0889L2.86116 56.1402L3.04602 56.2282C3.0702 56.2397 3.09257 56.2547 3.11245 56.2726L3.17976 56.3334C3.20611 56.3572 3.21886 56.3925 3.21375 56.4277C3.20498 56.488 3.24851 56.5433 3.30917 56.5489L3.41262 56.5586C3.42481 56.5597 3.43666 56.5633 3.44746 56.5691C3.48727 56.5903 3.50582 56.6373 3.49128 56.68L3.48415 56.701C3.46894 56.7457 3.48179 56.7951 3.51683 56.8268L3.64607 56.9435C3.67083 56.9658 3.68281 56.9991 3.67801 57.0321C3.6751 57.0521 3.67832 57.0725 3.68725 57.0906L3.74319 57.2043C3.76972 57.2582 3.81934 57.2971 3.87802 57.3101L3.88698 57.3121C3.93943 57.3236 3.99429 57.311 4.03637 57.2776C4.0656 57.2544 4.10135 57.241 4.1386 57.2392L4.1927 57.2365C4.24995 57.2338 4.30701 57.2452 4.35876 57.2698L4.44955 57.313C4.48382 57.3294 4.51554 57.3506 4.54371 57.376L4.67704 57.4964C4.72775 57.5422 4.80266 57.5488 4.86067 57.5127C4.89078 57.494 4.92647 57.4863 4.96164 57.4909L5.23315 57.5267C5.26086 57.5303 5.28891 57.5306 5.31667 57.5273L5.35382 57.523C5.45727 57.5111 5.55876 57.5578 5.61691 57.6442L5.7127 57.7865C5.72783 57.809 5.7257 57.8389 5.70754 57.859C5.68898 57.8796 5.6872 57.9102 5.70326 57.9328L5.78627 58.0494C5.79627 58.0635 5.80777 58.0764 5.82056 58.0879L5.92907 58.1859C5.98279 58.2344 6.04577 58.2716 6.11422 58.2951L6.2499 58.3418C6.31248 58.3633 6.36247 58.4111 6.38668 58.4727L6.39629 58.4972C6.40275 58.5136 6.41292 58.5283 6.42602 58.5401L6.46731 58.5774C6.49127 58.5991 6.52823 58.5972 6.54986 58.5732C6.5715 58.5493 6.60846 58.5474 6.63242 58.569L6.69131 58.6222C6.72544 58.653 6.74195 58.6988 6.73533 58.7443L6.73377 58.755L6.69731 58.9233C6.69503 58.9338 6.69591 58.9448 6.69986 58.9549C6.71473 58.9927 6.76418 59.0017 6.79141 58.9715L6.85677 58.8992C6.86761 58.8872 6.88086 58.8776 6.89565 58.871L7.00433 58.823C7.04278 58.8059 7.08636 58.8327 7.08859 58.8747C7.08902 58.8828 7.0878 58.891 7.08498 58.8986L7.06856 58.9433C7.05355 58.9841 7.04786 59.0277 7.0519 59.071L7.08263 59.4C7.08375 59.412 7.08691 59.4237 7.09196 59.4346C7.12388 59.5037 7.21595 59.5176 7.26692 59.4612L7.27783 59.4491C7.29255 59.4328 7.31157 59.421 7.33271 59.415L7.51287 59.364L7.77415 59.2849C7.84861 59.2706 7.92575 59.2817 7.99307 59.3166L8.20315 59.4255C8.26498 59.4576 8.31411 59.5097 8.34249 59.5733L8.36303 59.6193C8.38217 59.6622 8.41712 59.696 8.4606 59.7137L8.58112 59.7629C8.61651 59.7773 8.63168 59.8192 8.61375 59.8529C8.6062 59.8671 8.60423 59.8836 8.60821 59.8992L8.62297 59.9569L8.66127 60.1887C8.66822 60.2307 8.68748 60.2697 8.71662 60.3008C8.79853 60.3881 8.93596 60.3917 9.02235 60.3088L9.06179 60.271C9.08829 60.2455 9.12096 60.2275 9.15657 60.2185L9.23052 60.1999C9.25267 60.1943 9.27614 60.2002 9.29309 60.2155L9.30481 60.2261C9.33009 60.2489 9.32881 60.289 9.30212 60.3101C9.27249 60.3336 9.27479 60.3793 9.30662 60.3997L9.46137 60.4989C9.47518 60.5078 9.48777 60.5184 9.49879 60.5305L9.6028 60.6451C9.62539 60.67 9.62909 60.7067 9.61192 60.7356C9.5933 60.767 9.59936 60.8071 9.62641 60.8315L9.64963 60.8525L9.75323 60.9271C9.79789 60.9593 9.83043 61.0055 9.84563 61.0584L9.85742 61.0995C9.87349 61.1554 9.85954 61.2157 9.82052 61.2589C9.79047 61.2922 9.77492 61.3361 9.77731 61.3809L9.78063 61.4433L9.78943 61.6088L9.85637 62.071C9.86418 62.125 9.87905 62.1778 9.90058 62.2279C9.96479 62.3774 10.0849 62.496 10.2352 62.5583L10.3231 62.5947L10.4535 62.6463C10.4877 62.6599 10.5108 62.6921 10.5128 62.7288C10.5141 62.7538 10.5054 62.7783 10.4886 62.7968L10.4334 62.858C10.3946 62.901 10.3694 62.9546 10.361 63.012L10.3399 63.1576C10.3382 63.1687 10.3395 63.1801 10.3437 63.1907C10.3596 63.2313 10.4103 63.2449 10.4445 63.2178L10.4483 63.2147C10.4715 63.1963 10.5039 63.1949 10.5287 63.2112L10.6611 63.2984C10.7133 63.3328 10.7437 63.392 10.7414 63.4544C10.7394 63.5066 10.7147 63.5553 10.6738 63.5878L10.636 63.6177C10.6299 63.6226 10.6242 63.6279 10.619 63.6337L10.5981 63.6568C10.5864 63.6698 10.5803 63.6869 10.5813 63.7044C10.5842 63.7597 10.6501 63.7868 10.6912 63.7496L10.7065 63.7357C10.7375 63.7076 10.7855 63.7101 10.8135 63.7412L10.9869 63.9342C11.036 63.9889 11.1017 64.0258 11.174 64.0393L11.3969 64.081C11.4086 64.0832 11.42 64.087 11.4307 64.0922L11.4496 64.1016C11.5118 64.1322 11.5321 64.211 11.4924 64.2679C11.472 64.2971 11.4666 64.3343 11.4778 64.3681L11.4808 64.3772C11.5025 64.443 11.5713 64.4808 11.6385 64.464L11.7541 64.4349C11.814 64.4199 11.8772 64.4266 11.9326 64.4538L11.9701 64.4723C11.9901 64.4821 12.0085 64.4946 12.025 64.5095L12.0316 64.5155C12.0677 64.548 12.0916 64.5919 12.0996 64.6398C12.1075 64.6878 12.1314 64.7316 12.1675 64.7642L12.1773 64.773C12.2141 64.8063 12.26 64.828 12.3091 64.8353L12.3477 64.8411C12.3825 64.8463 12.415 64.8617 12.4411 64.8853C12.4914 64.9306 12.5117 65.0004 12.4937 65.0657L12.492 65.0719C12.485 65.0974 12.4834 65.1241 12.4873 65.1503L12.5845 65.8023L12.622 65.9487C12.625 65.9603 12.6293 65.9715 12.6349 65.982L12.6887 66.0832C12.7186 66.1393 12.7979 66.1425 12.8321 66.0889L12.8491 66.0636C12.89 66.0027 12.9736 65.9886 13.0322 66.0326C13.0876 66.0743 13.0998 66.1525 13.0597 66.209L12.9156 66.4123C12.9054 66.4267 12.8963 66.4419 12.8886 66.4577L12.8443 66.5483C12.8323 66.5729 12.8311 66.6014 12.8411 66.6268C12.8549 66.662 12.888 66.686 12.9257 66.6884L12.9329 66.6888C12.9808 66.6918 13.025 66.6629 13.0416 66.6179L13.0507 66.5931C13.055 66.5815 13.0607 66.5704 13.0678 66.5603L13.0796 66.5433C13.1335 66.4662 13.2201 66.4183 13.3141 66.4137L13.4243 66.4084C13.428 66.4082 13.4317 66.4083 13.4353 66.4086C13.4893 66.4137 13.5217 66.4709 13.4983 66.5197L13.3808 66.7647C13.3719 66.7833 13.3608 66.8008 13.3479 66.8169L13.2508 66.9372C13.1707 67.0365 13.1914 67.1829 13.296 67.256C13.3671 67.3059 13.4609 67.3092 13.5355 67.2645L13.7436 67.1399C13.8153 67.097 13.9075 67.1416 13.9183 67.2244C13.9216 67.2496 13.9331 67.2731 13.951 67.2911L14.067 67.4081C14.1573 67.4993 14.2988 67.5158 14.4077 67.448L14.4583 67.4165C14.4916 67.3958 14.5321 67.39 14.5698 67.4005L14.6732 67.4294C14.7343 67.4465 14.7526 67.5241 14.7056 67.5667C14.6703 67.5987 14.6703 67.6542 14.7057 67.6862L14.8647 67.8298C14.9108 67.8714 14.9697 67.8962 15.0317 67.9L15.054 67.9014C15.0751 67.9027 15.0963 67.902 15.1173 67.8994L15.1803 67.8914C15.2552 67.882 15.33 67.9101 15.3802 67.9666L15.4258 68.0179C15.4357 68.0291 15.4409 68.0437 15.4404 68.0586C15.4383 68.1128 15.5051 68.1399 15.5414 68.0997L15.5482 68.0921C15.5558 68.0837 15.5654 68.0776 15.5762 68.0744L15.8031 68.0057C15.815 68.0021 15.8273 67.9999 15.8397 67.9993C15.9071 67.9961 15.9685 68.0377 15.9904 68.1015L16.0074 68.1507C16.0233 68.1971 16.0234 68.2474 16.0076 68.2938L15.9941 68.3334C15.9816 68.3702 15.9842 68.4105 16.0014 68.4454L16.0109 68.4648C16.0233 68.49 16.0458 68.5086 16.0727 68.5162L16.0884 68.5205C16.1148 68.5279 16.143 68.5197 16.1614 68.4994L16.1843 68.474C16.1984 68.4584 16.1971 68.4344 16.1816 68.4203C16.1772 68.4164 16.172 68.4135 16.1663 68.4119L16.133 68.4026C16.1273 68.401 16.1221 68.3981 16.1178 68.3942C16.1022 68.3801 16.1009 68.3561 16.115 68.3405L16.1587 68.2921C16.1648 68.2854 16.1719 68.2797 16.1798 68.2752C16.2112 68.2576 16.2503 68.2619 16.2771 68.2861L16.2937 68.3011C16.3105 68.3162 16.3225 68.336 16.3281 68.3579L16.3404 68.4063L16.3939 68.568C16.3978 68.5798 16.4037 68.5908 16.4114 68.6005L16.4335 68.6283C16.4624 68.6646 16.517 68.6663 16.548 68.6319C16.5758 68.6011 16.6233 68.5987 16.6541 68.6265L16.66 68.6319C16.6764 68.6466 16.6862 68.6672 16.6873 68.6891L16.689 68.721C16.6913 68.7634 16.7102 68.8032 16.7417 68.8317L16.8952 68.9702C16.9405 69.0111 17.0127 68.9941 17.035 68.9373C17.0506 68.8977 17.0924 68.8751 17.1341 68.8837L17.3657 68.9318C17.4613 68.9517 17.545 69.0087 17.5985 69.0903L17.7142 69.2668C17.7498 69.3211 17.7922 69.3707 17.8404 69.4142L17.9331 69.4979C17.9505 69.5136 17.971 69.5256 17.9933 69.5329L18.0107 69.5386C18.0993 69.5678 18.1413 69.669 18.0993 69.7523L18.0959 69.759C18.0731 69.8042 18.0765 69.8581 18.1047 69.9C18.1412 69.9542 18.2104 69.9759 18.2713 69.9522L18.379 69.9103C18.3996 69.9023 18.4224 69.9024 18.4429 69.9105L18.4697 69.9212C18.5238 69.9426 18.5316 70.0159 18.4833 70.0482C18.4561 70.0664 18.4446 70.1007 18.4553 70.1316L18.4839 70.2149C18.5038 70.2729 18.551 70.3174 18.6101 70.3339L18.6452 70.3437C18.6599 70.3478 18.675 70.3506 18.6903 70.352L18.7029 70.3532C18.8274 70.3649 18.9502 70.317 19.034 70.2242L19.1202 70.1288L21.0563 68.1598L24.6728 64.1548C24.7375 64.0832 24.7954 64.0057 24.8459 63.9235L25.0183 63.6426C25.0753 63.5497 25.1596 63.4767 25.2597 63.4334C25.3294 63.4033 25.3918 63.3585 25.4427 63.3022L25.7259 62.9886L26.6109 61.8474C26.6626 61.7807 26.709 61.7101 26.7496 61.6361L26.9221 61.3222C27.0241 61.1364 27.1979 61.0007 27.4028 60.9467C27.5458 60.9089 27.6751 60.8309 27.7752 60.722L32.9637 55.0734C33.1349 54.887 33.2876 54.6843 33.4196 54.4682L33.6003 54.1854C33.7339 53.9763 33.9059 53.7945 34.1072 53.6494C34.2654 53.5354 34.4058 53.3985 34.5237 53.2432L38.1757 48.4301L40.1919 45.8656C40.267 45.77 40.3324 45.6672 40.3872 45.5586L40.4165 45.5004C40.5014 45.3321 40.6175 45.1814 40.7585 45.0564L40.9035 44.9279C40.9804 44.8598 41.0404 44.7748 41.0789 44.6795C41.1081 44.6074 41.1497 44.5409 41.2018 44.4832L41.358 44.3102L43.7902 41.3715C44.0693 41.0624 44.4085 40.8134 44.7871 40.6399L44.8713 40.6012C44.9724 40.5549 45.0699 40.5012 45.163 40.4404L45.3495 40.3188C45.3883 40.2935 45.4238 40.2632 45.4549 40.2288L45.7128 39.9431C45.7695 39.8804 45.8663 39.8754 45.9291 39.9321C45.967 39.9663 46.0195 39.9794 46.069 39.9669L46.2506 39.9213C46.3474 39.897 46.4348 39.8444 46.5017 39.7703L50.6612 35.1639L55.1201 30.4011L55.9732 29.2812L56.2082 29.0209L57.8535 27.1989L59.3145 25.9664L64.4698 20.2572L64.717 19.9834C64.7818 19.9117 64.8551 19.8483 64.9353 19.7945L65.1669 19.6394C65.3472 19.5185 65.4557 19.316 65.4562 19.0989C65.4565 18.9379 65.5165 18.7827 65.6244 18.6632L65.8172 18.4497L67.2119 17.2205L68.4494 16.0909C68.5841 15.968 68.7305 15.8586 68.8866 15.7643L69.0618 15.6583C69.0672 15.6551 69.0728 15.6522 69.0787 15.6499L69.325 15.5486C69.3856 15.5236 69.3707 15.4339 69.3053 15.4298C69.2854 15.4286 69.2674 15.4178 69.2568 15.401L69.1889 15.2925C69.1292 15.1971 69.0227 15.1415 68.9104 15.147L68.347 15.1744C68.2943 15.177 68.2428 15.1586 68.2036 15.1232L68.1382 15.0642C68.0926 15.023 68.0222 15.0266 67.981 15.0722C67.9588 15.0968 67.9268 15.1102 67.8936 15.1088L67.2545 15.082C67.2277 15.0809 67.2013 15.0759 67.1761 15.0672L67.1082 15.0439C66.9855 15.0017 66.9288 14.8597 66.9872 14.7438C66.9932 14.732 66.998 14.7196 67.0015 14.7068C67.0348 14.5858 66.9499 14.4644 66.8248 14.4542L66.7936 14.4517C66.7236 14.446 66.6548 14.4733 66.6077 14.5255L66.5089 14.6349C66.4796 14.6674 66.4385 14.6868 66.3948 14.6889C66.3044 14.6934 66.2275 14.6239 66.2227 14.5335L66.2032 14.1674L66.3046 14.128C66.37 14.1026 66.3857 14.0172 66.3336 13.9702C66.3279 13.965 66.3216 13.9606 66.3148 13.957L65.9547 13.7647C65.9186 13.7454 65.876 13.7419 65.8372 13.7551C65.7499 13.7847 65.657 13.7283 65.643 13.6372L65.6324 13.5687C65.624 13.5136 65.5936 13.4643 65.5482 13.432L64.7913 12.8925L64.5641 12.6873C64.4874 12.6181 64.3691 12.6241 64.2999 12.7008L64.2532 12.7525C64.2098 12.8006 64.1355 12.8044 64.0874 12.7609C64.0393 12.7175 63.965 12.7213 63.9215 12.7694L63.854 12.8442C63.7994 12.9046 63.7158 12.9296 63.637 12.9091L63.3451 12.8329C63.2342 12.8039 63.1318 12.7486 63.0467 12.6718L62.9101 12.5484C62.8029 12.4516 62.6575 12.4086 62.5149 12.4315C62.4681 12.4391 62.4205 12.4396 62.3736 12.433L62.198 12.4086C61.9555 12.3749 61.7287 12.2692 61.5469 12.1051L61.4938 12.0571C61.4492 12.0168 61.4196 11.9626 61.4098 11.9033C61.3899 11.7831 61.4545 11.6647 61.5664 11.6164L61.6355 11.5865L61.7469 11.5341C61.8409 11.4898 61.888 11.3832 61.8575 11.2839C61.8402 11.2275 61.8475 11.1665 61.8776 11.1159L61.9359 11.0178C61.9808 10.9423 61.9662 10.8455 61.901 10.7866L61.8975 10.7835C61.8818 10.7693 61.8634 10.7583 61.8435 10.7513L61.676 10.6918C61.6357 10.6775 61.5947 10.7117 61.6017 10.754C61.6067 10.784 61.5868 10.8126 61.5569 10.8184L61.4438 10.8402C61.3466 10.859 61.2532 10.7932 61.2381 10.6954L61.221 10.5839C61.2171 10.5589 61.2048 10.536 61.186 10.519C61.1604 10.4959 61.1471 10.4621 61.1502 10.4277L61.1579 10.3408C61.1689 10.2168 61.0982 10.1 60.9832 10.0523L60.8947 10.0157C60.8682 10.0047 60.8391 10.0017 60.8109 10.0072C60.7657 10.0159 60.719 10.0029 60.6849 9.97203L60.6725 9.96087C60.6482 9.9389 60.6335 9.9082 60.6318 9.87547L60.6316 9.87198C60.6291 9.82476 60.5988 9.78355 60.5545 9.76709L60.4948 9.74495C60.4448 9.72638 60.4293 9.66322 60.4651 9.62363C60.4985 9.58662 60.4875 9.52795 60.4429 9.5056L60.1998 9.38378C60.1601 9.36387 60.1163 9.35361 60.0718 9.35385L59.4384 9.35718C59.3971 9.35739 59.3558 9.35444 59.315 9.34833C59.1904 9.32968 59.0631 9.34055 58.9435 9.38005L58.4874 9.53061C58.408 9.55681 58.3207 9.5384 58.2587 9.48239C58.2115 9.43973 58.1838 9.37957 58.1821 9.31594L58.1751 9.04807C58.1709 8.88763 58.2119 8.72922 58.2932 8.59089L58.5226 8.201C58.6266 8.02424 58.592 7.79872 58.4398 7.66128L58.3368 7.56826C58.2333 7.47478 58.1583 7.35396 58.1204 7.21971L58.0902 7.11269C58.0551 6.98817 58.0719 6.85473 58.1369 6.74285C58.2159 6.60663 58.2229 6.44018 58.1553 6.29788L58.1324 6.24958L58.0926 6.12551C58.0557 6.01019 58.0829 5.88393 58.164 5.79406C58.2389 5.71111 58.2682 5.59665 58.2424 5.48792L58.2027 5.32047C58.1996 5.30737 58.1956 5.2945 58.1907 5.28197C58.1486 5.17504 58.0465 5.10377 57.9317 5.10118L57.825 5.09877C57.7178 5.09635 57.6148 5.14072 57.5429 5.22033L57.4282 5.34741C57.355 5.42841 57.2301 5.43478 57.1491 5.36164C57.1197 5.33512 57.083 5.31803 57.0438 5.31258L56.6888 5.26323C56.5699 5.2467 56.4782 5.15005 56.4679 5.0304C56.4542 4.87034 56.2988 4.76186 56.1438 4.80421L54.8509 5.15754C54.4977 5.25407 54.1206 5.20563 53.8032 5.02297L51.8403 3.89317C51.622 3.76754 51.379 3.69086 51.1282 3.66842C50.6094 3.622 50.0971 3.81077 49.7324 4.18272L38.3666 15.7753C38.0506 16.0977 37.776 16.4584 37.5495 16.8489L36.276 19.0438C36.183 19.204 36.0174 19.3086 35.8328 19.3235C35.6929 19.3349 35.5622 19.3979 35.4662 19.5002L22.3679 33.4627C22.1871 33.6554 22.0294 33.8685 21.898 34.0977L21.4238 34.9247C21.2899 35.1582 21.0707 35.3306 20.8123 35.4057C20.627 35.4595 20.4603 35.5639 20.331 35.7071L16.6741 39.7569L14.8533 42.334L14.1795 43.0802L14.0773 43.1933C13.7289 43.5792 13.3349 43.9214 12.904 44.2124C12.4731 44.5033 12.0791 44.8455 11.7307 45.2314Z" fill="#DBD7D2"/>
<path d="M66.1057 14.2054L66.2032 14.1674M66.2032 14.1674L66.3046 14.128C66.37 14.1026 66.3857 14.0172 66.3336 13.9702V13.9702C66.3279 13.965 66.3216 13.9606 66.3148 13.957L65.9547 13.7647C65.9186 13.7454 65.876 13.7419 65.8372 13.7551V13.7551C65.7499 13.7847 65.657 13.7283 65.643 13.6372L65.6324 13.5687C65.624 13.5136 65.5936 13.4643 65.5482 13.432L64.7913 12.8925L64.5641 12.6873C64.4874 12.6181 64.3691 12.6241 64.2999 12.7008L64.2532 12.7525C64.2098 12.8006 64.1355 12.8044 64.0874 12.7609V12.7609C64.0393 12.7175 63.965 12.7213 63.9215 12.7694L63.854 12.8442C63.7994 12.9046 63.7158 12.9296 63.637 12.9091L63.3451 12.8329C63.2342 12.8039 63.1318 12.7486 63.0467 12.6718L62.9101 12.5484C62.8029 12.4516 62.6575 12.4086 62.5149 12.4315V12.4315C62.4681 12.4391 62.4205 12.4396 62.3736 12.433L62.198 12.4086C61.9555 12.3749 61.7287 12.2692 61.5469 12.1051V12.1051L61.4938 12.0571C61.4492 12.0168 61.4196 11.9626 61.4098 11.9033V11.9033C61.3899 11.7831 61.4545 11.6647 61.5664 11.6164L61.6355 11.5865L61.7469 11.5341C61.8409 11.4898 61.888 11.3832 61.8575 11.2839V11.2839C61.8402 11.2275 61.8475 11.1665 61.8776 11.1159L61.9359 11.0178C61.9808 10.9423 61.9662 10.8455 61.901 10.7866L61.8975 10.7835C61.8818 10.7693 61.8634 10.7583 61.8435 10.7513L61.676 10.6918C61.6357 10.6775 61.5947 10.7117 61.6017 10.754V10.754C61.6067 10.784 61.5868 10.8126 61.5569 10.8184L61.4438 10.8402C61.3466 10.859 61.2532 10.7932 61.2381 10.6954L61.221 10.5839C61.2171 10.5589 61.2048 10.536 61.186 10.519V10.519C61.1604 10.4959 61.1471 10.4621 61.1502 10.4277L61.1579 10.3408C61.1689 10.2168 61.0982 10.1 60.9832 10.0523L60.8947 10.0157C60.8682 10.0047 60.839 10.0017 60.8109 10.0072V10.0072C60.7657 10.0159 60.719 10.0029 60.6849 9.97203L60.6725 9.96087C60.6482 9.9389 60.6335 9.9082 60.6318 9.87547L60.6316 9.87198C60.6291 9.82476 60.5988 9.78355 60.5545 9.76709L60.4948 9.74494C60.4448 9.72638 60.4293 9.66322 60.4651 9.62363V9.62363C60.4985 9.58662 60.4875 9.52795 60.4429 9.5056L60.1998 9.38378C60.1601 9.36387 60.1163 9.35361 60.0718 9.35385L59.4384 9.35718C59.3971 9.3574 59.3558 9.35444 59.315 9.34833V9.34833C59.1904 9.32968 59.0631 9.34055 58.9435 9.38005L58.4874 9.53061C58.408 9.55681 58.3207 9.5384 58.2587 9.4824V9.4824C58.2115 9.43974 58.1838 9.37957 58.1821 9.31594L58.1751 9.04807C58.1709 8.88763 58.2119 8.72923 58.2932 8.59089L58.5226 8.201C58.6266 8.02424 58.592 7.79872 58.4398 7.66128V7.66128L58.3368 7.56826C58.2333 7.47478 58.1583 7.35396 58.1204 7.21971L58.0902 7.11269C58.055 6.98818 58.0719 6.85474 58.1369 6.74285V6.74285C58.2159 6.60663 58.2229 6.44018 58.1553 6.29788L58.1324 6.24958L58.0926 6.1255C58.0557 6.0102 58.0829 5.88393 58.164 5.79406V5.79406C58.2389 5.71112 58.2682 5.59665 58.2424 5.48792L58.2027 5.32047C58.1996 5.30737 58.1956 5.2945 58.1907 5.28197V5.28197C58.1486 5.17504 58.0465 5.10377 57.9317 5.10118L57.825 5.09877C57.7178 5.09635 57.6148 5.14072 57.5429 5.22033L57.4282 5.34741C57.355 5.42841 57.2301 5.43478 57.1491 5.36164V5.36164C57.1197 5.33512 57.083 5.31803 57.0438 5.31258L56.6888 5.26323C56.5699 5.2467 56.4782 5.15005 56.4679 5.0304V5.0304C56.4542 4.87034 56.2988 4.76186 56.1438 4.80421L54.8509 5.15754C54.4977 5.25407 54.1206 5.20563 53.8032 5.02297L51.8403 3.89317C51.622 3.76754 51.379 3.69086 51.1282 3.66842V3.66842C50.6094 3.62201 50.0971 3.81077 49.7324 4.18272L38.3666 15.7753C38.0506 16.0977 37.776 16.4584 37.5495 16.8489L36.276 19.0438C36.183 19.204 36.0174 19.3086 35.8328 19.3235V19.3235C35.6929 19.3349 35.5622 19.3979 35.4662 19.5002L22.3679 33.4626C22.1871 33.6554 22.0294 33.8685 21.898 34.0977L21.4238 34.9247C21.2899 35.1582 21.0707 35.3306 20.8123 35.4057V35.4057C20.627 35.4595 20.4603 35.5639 20.331 35.7071L16.6741 39.7569L14.8533 42.334L14.1795 43.0802L14.0773 43.1933C13.7289 43.5792 13.3349 43.9214 12.904 44.2124V44.2124C12.4731 44.5033 12.0791 44.8455 11.7307 45.2314L2.43057 55.5307C2.42187 55.5403 2.42263 55.5552 2.43226 55.5639V55.5639C2.44188 55.5726 2.44264 55.5874 2.43395 55.5971L2.41835 55.6143C2.40104 55.6335 2.40255 55.6631 2.42172 55.6804L2.45757 55.7128C2.46848 55.7226 2.47696 55.7349 2.48234 55.7485L2.54097 55.8977C2.56014 55.9465 2.59037 55.9902 2.62928 56.0253V56.0253C2.65932 56.0524 2.69398 56.074 2.73162 56.0889L2.86116 56.1402L3.04602 56.2282C3.0702 56.2397 3.09257 56.2547 3.11245 56.2726L3.17976 56.3334C3.20611 56.3572 3.21886 56.3925 3.21375 56.4277V56.4277C3.20498 56.488 3.24851 56.5433 3.30917 56.5489L3.41262 56.5586C3.42481 56.5597 3.43666 56.5633 3.44746 56.5691V56.5691C3.48727 56.5903 3.50582 56.6373 3.49128 56.68L3.48415 56.701C3.46894 56.7457 3.48179 56.7951 3.51683 56.8268L3.64607 56.9435C3.67083 56.9658 3.68281 56.9991 3.67801 57.0321V57.0321C3.6751 57.0521 3.67832 57.0725 3.68725 57.0906L3.74319 57.2043C3.76972 57.2582 3.81934 57.2971 3.87802 57.3101L3.88698 57.3121C3.93943 57.3236 3.99429 57.311 4.03637 57.2776V57.2776C4.0656 57.2544 4.10135 57.241 4.1386 57.2392L4.1927 57.2365C4.24995 57.2338 4.30701 57.2452 4.35876 57.2698L4.44955 57.313C4.48382 57.3294 4.51554 57.3506 4.54371 57.376L4.67704 57.4964C4.72775 57.5422 4.80266 57.5488 4.86067 57.5127V57.5127C4.89078 57.494 4.92647 57.4863 4.96164 57.4909L5.23315 57.5267C5.26086 57.5303 5.28891 57.5306 5.31667 57.5273L5.35382 57.523C5.45727 57.5111 5.55876 57.5578 5.61691 57.6442L5.7127 57.7865C5.72783 57.809 5.7257 57.8389 5.70754 57.859V57.859C5.68898 57.8796 5.6872 57.9102 5.70326 57.9328L5.78627 58.0494C5.79627 58.0635 5.80777 58.0764 5.82056 58.0879L5.92907 58.1859C5.98279 58.2344 6.04577 58.2716 6.11422 58.2951L6.2499 58.3418C6.31248 58.3633 6.36247 58.4111 6.38668 58.4727L6.39629 58.4972C6.40275 58.5136 6.41292 58.5283 6.42602 58.5401L6.46731 58.5774C6.49127 58.5991 6.52823 58.5972 6.54986 58.5732V58.5732C6.5715 58.5493 6.60846 58.5474 6.63242 58.569L6.69131 58.6222C6.72544 58.653 6.74194 58.6988 6.73533 58.7443L6.73377 58.755L6.69731 58.9233C6.69503 58.9338 6.69591 58.9448 6.69986 58.9549V58.9549C6.71473 58.9927 6.76418 59.0017 6.79141 58.9715L6.85677 58.8992C6.86761 58.8872 6.88086 58.8776 6.89565 58.871L7.00433 58.823C7.04278 58.8059 7.08636 58.8327 7.08859 58.8747V58.8747C7.08902 58.8828 7.0878 58.891 7.08498 58.8986L7.06856 58.9433C7.05355 58.9841 7.04786 59.0277 7.0519 59.071L7.08263 59.4C7.08375 59.412 7.08691 59.4237 7.09196 59.4346V59.4346C7.12388 59.5037 7.21595 59.5176 7.26692 59.4612L7.27783 59.4491C7.29255 59.4328 7.31157 59.421 7.33271 59.415L7.51287 59.364L7.77415 59.2849V59.2849C7.84861 59.2706 7.92575 59.2817 7.99308 59.3166L8.20315 59.4255C8.26498 59.4576 8.31411 59.5097 8.34249 59.5733L8.36303 59.6193C8.38217 59.6622 8.41712 59.696 8.4606 59.7137L8.58112 59.7629C8.61651 59.7773 8.63168 59.8192 8.61375 59.8529V59.8529C8.6062 59.8671 8.60423 59.8836 8.60821 59.8992L8.62297 59.9569L8.66127 60.1887C8.66822 60.2307 8.68748 60.2697 8.71662 60.3008V60.3008C8.79853 60.3881 8.93596 60.3917 9.02235 60.3088L9.06179 60.271C9.08829 60.2455 9.12096 60.2275 9.15657 60.2185L9.23052 60.1999C9.25267 60.1943 9.27614 60.2002 9.29309 60.2155L9.30481 60.2261C9.33009 60.2489 9.32881 60.289 9.30212 60.3101V60.3101C9.27249 60.3336 9.27479 60.3793 9.30662 60.3997L9.46137 60.4989C9.47518 60.5078 9.48777 60.5184 9.49879 60.5305L9.6028 60.6451C9.62539 60.67 9.62909 60.7067 9.61192 60.7356V60.7356C9.5933 60.767 9.59936 60.8071 9.62642 60.8315L9.64963 60.8525L9.75323 60.9271C9.79789 60.9593 9.83043 61.0055 9.84563 61.0584L9.85742 61.0995C9.87349 61.1554 9.85954 61.2157 9.82052 61.2589V61.2589C9.79047 61.2922 9.77492 61.3361 9.77731 61.3809L9.78063 61.4433L9.78943 61.6088L9.85637 62.071C9.86418 62.125 9.87905 62.1778 9.90058 62.2279V62.2279C9.96479 62.3774 10.0849 62.496 10.2352 62.5583L10.3231 62.5947L10.4535 62.6463C10.4877 62.6599 10.5108 62.6921 10.5128 62.7288V62.7288C10.5141 62.7538 10.5054 62.7783 10.4886 62.7968L10.4334 62.858C10.3946 62.901 10.3694 62.9546 10.361 63.012L10.3399 63.1576C10.3382 63.1687 10.3395 63.1801 10.3437 63.1907V63.1907C10.3596 63.2313 10.4103 63.2449 10.4445 63.2178L10.4483 63.2147C10.4715 63.1963 10.5039 63.1949 10.5287 63.2112L10.6611 63.2984C10.7133 63.3328 10.7437 63.392 10.7414 63.4544V63.4544C10.7394 63.5066 10.7147 63.5553 10.6738 63.5878L10.636 63.6177C10.6299 63.6226 10.6242 63.6279 10.619 63.6337L10.5981 63.6568C10.5864 63.6698 10.5804 63.6869 10.5813 63.7044V63.7044C10.5842 63.7597 10.6501 63.7868 10.6912 63.7496L10.7065 63.7357C10.7375 63.7076 10.7855 63.7101 10.8135 63.7412L10.9869 63.9342C11.036 63.9889 11.1017 64.0258 11.174 64.0393L11.3969 64.081C11.4086 64.0832 11.42 64.087 11.4307 64.0922L11.4496 64.1016C11.5118 64.1322 11.5321 64.211 11.4924 64.2679V64.2679C11.472 64.2971 11.4666 64.3343 11.4778 64.3681L11.4808 64.3772C11.5025 64.443 11.5713 64.4808 11.6385 64.464L11.7541 64.4349C11.814 64.4199 11.8772 64.4266 11.9326 64.4538L11.9701 64.4723C11.9901 64.4821 12.0085 64.4946 12.025 64.5095L12.0316 64.5155C12.0677 64.548 12.0916 64.5919 12.0996 64.6398V64.6398C12.1075 64.6878 12.1314 64.7316 12.1675 64.7642L12.1773 64.773C12.2141 64.8063 12.26 64.828 12.3091 64.8353L12.3477 64.8411C12.3825 64.8463 12.415 64.8617 12.4411 64.8853V64.8853C12.4914 64.9306 12.5117 65.0004 12.4937 65.0657L12.492 65.0719C12.485 65.0974 12.4834 65.1241 12.4873 65.1503L12.5845 65.8023L12.622 65.9487C12.625 65.9603 12.6293 65.9715 12.6349 65.982L12.6887 66.0832C12.7186 66.1393 12.7979 66.1425 12.8321 66.0889V66.0889L12.8491 66.0636C12.89 66.0027 12.9736 65.9886 13.0322 66.0326V66.0326C13.0876 66.0743 13.0998 66.1525 13.0597 66.209L12.9156 66.4123C12.9054 66.4267 12.8963 66.4419 12.8886 66.4577L12.8443 66.5483C12.8323 66.5729 12.8311 66.6014 12.8411 66.6268V66.6268C12.8549 66.662 12.888 66.686 12.9257 66.6884L12.9329 66.6888C12.9808 66.6918 13.025 66.6629 13.0416 66.6179L13.0507 66.5931C13.055 66.5815 13.0607 66.5704 13.0678 66.5603L13.0796 66.5433C13.1335 66.4662 13.2201 66.4183 13.3141 66.4137L13.4243 66.4084C13.428 66.4082 13.4317 66.4083 13.4353 66.4086V66.4086C13.4893 66.4137 13.5217 66.4709 13.4983 66.5197L13.3808 66.7647C13.3719 66.7833 13.3608 66.8008 13.3479 66.8169L13.2508 66.9372C13.1707 67.0365 13.1914 67.1829 13.296 67.256V67.256C13.3671 67.3059 13.4609 67.3092 13.5355 67.2645L13.7436 67.1399C13.8153 67.097 13.9075 67.1416 13.9183 67.2244V67.2244C13.9216 67.2496 13.9331 67.2731 13.951 67.2911L14.067 67.4081C14.1573 67.4993 14.2988 67.5158 14.4077 67.448L14.4583 67.4165C14.4916 67.3958 14.5321 67.39 14.5698 67.4005L14.6732 67.4294C14.7343 67.4465 14.7526 67.5241 14.7056 67.5667V67.5667C14.6703 67.5987 14.6703 67.6542 14.7057 67.6862L14.8647 67.8298C14.9108 67.8714 14.9697 67.8962 15.0317 67.9L15.054 67.9014C15.0751 67.9027 15.0963 67.902 15.1173 67.8994L15.1803 67.8914C15.2552 67.882 15.33 67.9101 15.3802 67.9666L15.4258 68.0179C15.4357 68.0291 15.4409 68.0437 15.4404 68.0586V68.0586C15.4383 68.1128 15.5051 68.1399 15.5414 68.0997L15.5482 68.0921C15.5558 68.0837 15.5654 68.0776 15.5762 68.0744L15.8031 68.0057C15.815 68.0021 15.8273 67.9999 15.8397 67.9993V67.9993C15.9071 67.9961 15.9685 68.0377 15.9904 68.1015L16.0074 68.1507C16.0233 68.1971 16.0234 68.2474 16.0076 68.2938L15.9941 68.3334C15.9816 68.3702 15.9842 68.4105 16.0014 68.4454L16.0109 68.4648C16.0233 68.49 16.0458 68.5086 16.0727 68.5162L16.0884 68.5205C16.1148 68.5279 16.143 68.5197 16.1614 68.4994L16.1843 68.474C16.1984 68.4584 16.1971 68.4344 16.1816 68.4203V68.4203C16.1772 68.4164 16.172 68.4135 16.1663 68.4119L16.133 68.4026C16.1273 68.401 16.1221 68.3981 16.1178 68.3942V68.3942C16.1022 68.3801 16.1009 68.3561 16.115 68.3405L16.1587 68.2921C16.1648 68.2854 16.1719 68.2797 16.1798 68.2752V68.2752C16.2112 68.2576 16.2503 68.2619 16.2771 68.2861L16.2937 68.3011C16.3105 68.3162 16.3225 68.336 16.3281 68.3579L16.3404 68.4063L16.3939 68.568C16.3978 68.5798 16.4037 68.5908 16.4114 68.6005L16.4335 68.6283C16.4624 68.6646 16.517 68.6663 16.548 68.6319V68.6319C16.5758 68.6011 16.6233 68.5987 16.6541 68.6265L16.66 68.6319C16.6764 68.6466 16.6862 68.6672 16.6873 68.6891L16.689 68.721C16.6913 68.7634 16.7102 68.8032 16.7417 68.8317L16.8952 68.9702C16.9405 69.0111 17.0127 68.9941 17.035 68.9373V68.9373C17.0506 68.8977 17.0924 68.8751 17.1341 68.8837L17.3657 68.9318C17.4613 68.9517 17.545 69.0087 17.5985 69.0903L17.7142 69.2668C17.7498 69.3211 17.7922 69.3707 17.8404 69.4142L17.9331 69.4979C17.9505 69.5136 17.9711 69.5256 17.9933 69.5329L18.0107 69.5386C18.0993 69.5678 18.1413 69.669 18.0993 69.7523L18.0959 69.759C18.0731 69.8042 18.0765 69.8581 18.1047 69.9V69.9C18.1412 69.9542 18.2104 69.9759 18.2713 69.9522L18.379 69.9103C18.3996 69.9023 18.4224 69.9024 18.4429 69.9105L18.4697 69.9212C18.5238 69.9426 18.5316 70.0159 18.4833 70.0482V70.0482C18.4561 70.0664 18.4446 70.1007 18.4553 70.1316L18.4839 70.2149C18.5038 70.2729 18.551 70.3174 18.6101 70.3339L18.6452 70.3437C18.6599 70.3478 18.675 70.3506 18.6903 70.352L18.7029 70.3532C18.8274 70.3649 18.9502 70.317 19.034 70.2242L19.1202 70.1288L21.0563 68.1598L24.6728 64.1548C24.7375 64.0832 24.7954 64.0057 24.8459 63.9235L25.0183 63.6426C25.0753 63.5497 25.1596 63.4767 25.2597 63.4334V63.4334C25.3294 63.4033 25.3918 63.3585 25.4427 63.3022L25.7259 62.9886L26.6109 61.8474C26.6626 61.7807 26.709 61.7101 26.7496 61.6361L26.9221 61.3222C27.0241 61.1364 27.1979 61.0007 27.4028 60.9467V60.9467C27.5458 60.9089 27.6751 60.8309 27.7752 60.722L32.9637 55.0734C33.1349 54.887 33.2876 54.6843 33.4196 54.4682V54.4682L33.6003 54.1854C33.7339 53.9763 33.9059 53.7945 34.1072 53.6494V53.6494C34.2654 53.5354 34.4058 53.3985 34.5237 53.2432L38.1757 48.4301L40.1919 45.8656C40.267 45.77 40.3324 45.6672 40.3872 45.5586L40.4165 45.5004C40.5014 45.3321 40.6175 45.1814 40.7585 45.0564L40.9035 44.9279C40.9804 44.8598 41.0404 44.7748 41.0789 44.6795V44.6795C41.1081 44.6074 41.1497 44.5409 41.2018 44.4832L41.358 44.3102L43.7902 41.3715V41.3715C44.0693 41.0624 44.4085 40.8134 44.7871 40.6399L44.8713 40.6012C44.9724 40.5549 45.0699 40.5012 45.163 40.4404L45.3495 40.3188C45.3883 40.2935 45.4238 40.2632 45.4549 40.2288L45.7128 39.9431C45.7695 39.8804 45.8663 39.8754 45.9291 39.9321V39.9321C45.967 39.9663 46.0195 39.9794 46.069 39.9669L46.2506 39.9213C46.3474 39.897 46.4348 39.8444 46.5017 39.7703L50.6612 35.1639L55.1201 30.4011L55.9732 29.2812L56.2082 29.0209L57.8535 27.1989L59.3145 25.9664L64.4698 20.2573L64.717 19.9834C64.7818 19.9117 64.8551 19.8483 64.9353 19.7945L65.1669 19.6394C65.3472 19.5185 65.4557 19.316 65.4562 19.0989V19.0989C65.4565 18.9379 65.5165 18.7827 65.6244 18.6632L65.8172 18.4497L67.2119 17.2205L68.4494 16.0909C68.5841 15.968 68.7305 15.8586 68.8866 15.7643L69.0618 15.6583C69.0672 15.6551 69.0728 15.6522 69.0787 15.6499L69.325 15.5486C69.3856 15.5236 69.3707 15.4339 69.3053 15.4298V15.4298C69.2854 15.4286 69.2674 15.4178 69.2568 15.401L69.1889 15.2925C69.1292 15.1971 69.0227 15.1415 68.9104 15.147L68.347 15.1744C68.2943 15.177 68.2428 15.1586 68.2036 15.1232L68.1382 15.0642C68.0926 15.023 68.0222 15.0266 67.981 15.0722V15.0722C67.9588 15.0968 67.9268 15.1102 67.8936 15.1088L67.2545 15.082C67.2277 15.0809 67.2013 15.0759 67.1761 15.0672L67.1082 15.0439C66.9855 15.0017 66.9288 14.8597 66.9872 14.7438V14.7438C66.9932 14.732 66.998 14.7196 67.0015 14.7068V14.7068C67.0348 14.5858 66.9499 14.4644 66.8248 14.4542L66.7936 14.4517C66.7236 14.446 66.6548 14.4733 66.6077 14.5255L66.5089 14.6349C66.4796 14.6674 66.4385 14.6868 66.3948 14.6889V14.6889C66.3044 14.6934 66.2275 14.6239 66.2227 14.5335L66.2032 14.1674Z" stroke="#C7A6A6"/>
</svg>
